<?xml version="1.0" encoding="utf-8"?>
<!-- Generator: Adobe Illustrator 16.0.0, SVG Export Plug-In . SVG Version: 6.00 Build 0)  -->
<!DOCTYPE svg PUBLIC "-//W3C//DTD SVG 1.1//EN" "http://www.w3.org/Graphics/SVG/1.1/DTD/svg11.dtd">
<svg version="1.1" id="Layer_1" xmlns="http://www.w3.org/2000/svg" xmlns:xlink="http://www.w3.org/1999/xlink" x="0px" y="0px"
	 width="1000px" height="1000px" viewBox="0 0 1000 1000" enable-background="new 0 0 1000 1000" xml:space="preserve">
<path fill="#ECD100" d="M441.952,601.13c-3.085-14.246-19.964-29.683-31.508-37.8c-0.696,5.722,2.008,26.087,19.146,34.549
	c-16.783-2.155-38.79,6.57-42.617,9.044C406.252,615.257,431.62,614.604,441.952,601.13z"/>
<path fill="#ECD100" d="M412.771,591.835c-0.446-13.555-13.874-31.916-22.94-41.104c-1.779,5.794-3.051,25.034,12.53,36.306
	c-17.217-5.707-38.845-0.964-42.666,0.499C376.746,599.482,401.05,602.598,412.771,591.835z"/>
<path fill="#ECD100" d="M385.161,576.912c2.221-12.789-6.897-33.284-13.471-43.082c-5.195,9.763-5.249,26.185,5.264,37.066
	c-16.132-9.203-36.444-9.034-40.776-8.417C350.394,577.866,372.761,584.44,385.161,576.912z"/>
<path fill="#ECD100" d="M361.539,556.846c4.583-11.128,0.603-32.297-4.292-43.274c-4.008,5.225-11.567,20.945-1.649,36.601
	c-13.157-12-30.381-15.857-36.997-16.229C329.702,552.16,349.637,561.004,361.539,556.846z"/>
<path fill="#ECD100" d="M308.381,502.211c6.206,20.671,23.825,32.202,34.759,30.658c6.625-9.733,5.257-31.301,3.544-40.388
	c-7.409,5.986-13.396,17.396-9.783,29.268C329.573,512.007,313.768,504.014,308.381,502.211z"/>
<path fill="#ECD100" d="M329.625,504.563c6.527-5.762,13.667-23.225,13.83-37.158c-10.509,5.717-17.618,16.588-15.725,30.715
	c-4.484-11.23-11.663-22.013-24.059-29.409C304.976,488.211,318.665,503.516,329.625,504.563z"/>
<path fill="#ECD100" d="M323.935,474.9c7.108-3.666,17.583-18.389,19.732-33.026c-11.13,4.426-18.93,13.417-20.066,27.273
	c-1.844-11.286-5.627-21.87-17.539-31.698C304.387,455.384,314.647,471.778,323.935,474.9z"/>
<path fill="#ECD100" d="M324.338,444.661c7.076-2.173,19.372-14.422,22.997-28.895c-11.151,3.333-19.187,10.446-22.483,24.032
	c-0.059-12.78-3.129-22.426-12.491-32.238C308.526,424.758,317.101,440.891,324.338,444.661z"/>
<path fill="#ECD100" d="M329.132,414.784c6.038-0.934,19.731-10.486,24.637-25.052c-11.135,2.426-18.87,8.143-23.697,20.989
	c1.555-14.091-1.379-22.556-8.516-31.819C316.165,394.904,323.22,410.825,329.132,414.784z"/>
<path fill="#ECD100" d="M474.243,605.191c-6.739-14.414-25.112-25.862-39.412-32.618c0.312,5.577,7.195,26.188,25.354,31.686
	c-18.068,1.109-38.11,14.479-40.974,17.332C442.119,626.545,467.264,620.178,474.243,605.191z"/>
<path fill="#ECD100" d="M348.398,357.992c-11,7.175-18.821,22.645-12.194,32.984C347.435,386.104,350.203,370.207,348.398,357.992z"
	/>
<path fill="#ECD100" d="M613.026,606.923c-3.827-2.474-25.835-11.199-42.618-9.044c17.135-8.462,19.844-28.827,19.147-34.549
	c-11.546,8.117-28.426,23.554-31.508,37.8C568.379,614.604,593.746,615.257,613.026,606.923z"/>
<path fill="#ECD100" d="M597.637,587.036c15.58-11.271,14.307-30.512,12.531-36.306c-9.069,9.188-22.498,27.55-22.941,41.104
	c11.722,10.763,36.025,7.647,53.077-4.3C636.479,586.072,614.852,581.329,597.637,587.036z"/>
<path fill="#ECD100" d="M663.819,562.479c-4.332-0.617-24.644-0.786-40.776,8.417c10.515-10.882,10.46-27.304,5.264-37.066
	c-6.574,9.798-15.688,30.293-13.467,43.082C627.236,584.44,649.604,577.866,663.819,562.479z"/>
<path fill="#ECD100" d="M681.397,533.942c-6.618,0.372-23.84,4.229-36.999,16.229c9.92-15.655,2.359-31.376-1.649-36.601
	c-4.895,10.978-8.875,32.146-4.291,43.274C650.359,561.004,670.297,552.16,681.397,533.942z"/>
<path fill="#ECD100" d="M663.097,521.749c3.612-11.872-2.375-23.282-9.784-29.268c-1.71,9.087-3.084,30.655,3.546,40.388
	c10.934,1.544,28.554-9.987,34.76-30.658C686.23,504.014,670.429,512.007,663.097,521.749z"/>
<path fill="#ECD100" d="M672.27,498.119c1.89-14.127-5.219-24.998-15.726-30.715c0.162,13.933,7.301,31.396,13.833,37.158
	c10.954-1.047,24.646-16.351,25.952-35.852C683.93,476.106,676.754,486.889,672.27,498.119z"/>
<path fill="#ECD100" d="M656.331,441.874c2.148,14.637,12.624,29.361,19.733,33.026c9.289-3.122,19.55-19.516,17.873-37.451
	c-11.914,9.828-15.697,20.412-17.54,31.698C675.262,455.291,667.459,446.299,656.331,441.874z"/>
<path fill="#ECD100" d="M652.665,415.766c3.619,14.473,15.92,26.722,22.998,28.895c7.235-3.77,15.812-19.903,11.975-37.101
	c-9.362,9.813-12.432,19.458-12.491,32.238C671.85,426.212,663.814,419.099,652.665,415.766z"/>
<path fill="#ECD100" d="M670.864,414.784c5.913-3.959,12.968-19.88,7.575-35.883c-7.137,9.264-10.068,17.728-8.513,31.819
	c-4.829-12.846-12.562-18.563-23.697-20.989C651.136,404.298,664.828,413.85,670.864,414.784z"/>
<path fill="#ECD100" d="M580.784,621.591c-2.861-2.854-22.904-16.223-40.974-17.332c18.163-5.498,25.047-26.108,25.356-31.686
	c-14.301,6.756-32.673,18.204-39.409,32.618C532.734,620.178,557.88,626.545,580.784,621.591z"/>
<path fill="#ECD100" d="M663.796,390.976c6.623-10.339-1.198-25.809-12.195-32.984C649.795,370.207,652.564,386.104,663.796,390.976
	z"/>
<polygon fill="#ECD100" points="504.671,597.35 499.824,587.53 494.978,597.35 484.142,598.924 491.984,606.567 490.132,617.36 
	499.824,612.264 509.518,617.36 507.667,606.567 515.507,598.924 "/>
<path fill="#ECD100" d="M719.008,583.622c-0.544-0.89-1.74-1.051-2.992-0.435c-11.363,5.617-23.186,9.902-35.132,12.887
	c2.788-10.482,4.96-20.701,6.752-30.626c0.199-1.087-0.418-1.958-1.524-2.177c-1.107-0.208-2.453,0.274-3.358,1.188
	c-17.275,17.657-36.619,31.768-57.17,42.778c-1.369,0.735-1.747,2.275-0.839,3.469c1.712,2.232,3.424,4.466,5.133,6.692
	c0.918,1.189,2.829,1.508,4.273,0.69c1.844-1.053,3.674-2.127,5.494-3.225c1.421-0.852,3.344-0.659,4.315,0.462
	c6.726,7.817,13.459,15.634,20.188,23.443c20.416-14.282,38.763-31.558,54.232-51.638
	C719.299,585.933,719.553,584.513,719.008,583.622z"/>
<path fill="#ECD100" d="M337.599,636.744c6.146-7.141,12.292-14.28,18.443-21.417c0.966-1.121,2.894-1.313,4.313-0.462
	c1.818,1.098,3.652,2.172,5.495,3.225c1.445,0.823,3.357,0.505,4.273-0.69c1.71-2.227,3.419-4.46,5.131-6.692
	c0.913-1.191,0.531-2.739-0.837-3.469c-20.549-11.011-39.893-25.121-57.171-42.778c-0.903-0.914-2.251-1.396-3.358-1.188
	c-1.105,0.219-1.724,1.09-1.528,2.177c1.798,9.925,3.971,20.144,6.754,30.626c-11.946-2.984-23.768-7.27-35.128-12.887
	c-1.252-0.616-2.452-0.455-2.996,0.435c-0.54,0.891-0.292,2.311,0.632,3.511c14.756,19.156,32.128,35.754,51.413,49.646
	C334.586,637.892,336.631,637.865,337.599,636.744z"/>
<path fill="#ECD100" d="M392.156,642.297c-1.25-0.51-2.416-0.504-3.516,0.018c-1.1,0.519-2.146,1.651-3.133,3.404
	c-0.988,1.751-2.653,5.285-4.989,10.604c-2.313,5.271-3.758,8.79-4.332,10.567c-0.575,1.776-0.712,3.333-0.401,4.661
	c0.312,1.328,1.279,2.333,2.898,2.992c1.342,0.547,2.608,0.572,3.788,0.086c1.18-0.488,2.242-1.627,3.193-3.402
	c0.951-1.772,2.504-5.387,4.67-10.835c2.123-5.347,3.442-8.902,3.959-10.664c0.517-1.764,0.653-3.295,0.422-4.592
	C394.485,643.841,393.634,642.898,392.156,642.297z"/>
<path fill="#ECD100" d="M574.975,671.86c-1.431-5.568-2.455-9.215-3.072-10.943c-0.619-1.73-1.404-3.059-2.35-3.979
	c-0.946-0.921-2.183-1.2-3.72-0.841c-1.301,0.303-2.231,0.977-2.807,2.031c-0.576,1.053-0.748,2.573-0.514,4.564
	c0.233,1.992,0.97,5.823,2.213,11.49c1.234,5.614,2.136,9.303,2.715,11.08c0.581,1.775,1.38,3.114,2.405,4.018
	c1.024,0.9,2.385,1.165,4.069,0.773c1.397-0.323,2.43-1.027,3.093-2.104c0.659-1.072,0.85-2.608,0.57-4.595
	C577.304,681.368,576.429,677.535,574.975,671.86z"/>
<path fill="#ECD100" d="M642.981,621.644c-0.945-1.145-2.882-1.369-4.341-0.521c-84.571,49.253-195.044,48.725-279.027-1.678
	c-9.505,11.553-19.013,23.099-28.516,34.657c-0.95,1.145-0.363,3.025,1.321,4.18c96.523,66.815,239.424,66.874,336.015,0.154
	c1.688-1.149,2.274-3.035,1.322-4.181C660.834,643.384,651.908,632.514,642.981,621.644z M360.943,658.675
	c-1.292,1.508-3.164,2.662-5.636,3.42c-2.47,0.757-4.965,0.479-7.425-0.838c-2.042-1.09-3.332-2.467-3.858-4.096
	c-0.525-1.629-0.413-3.078,0.317-4.343c0.523-0.904,1.284-1.573,2.277-2.002c0.995-0.429,1.958-0.385,2.899,0.131
	c0.826,0.453,1.355,1.146,1.594,2.084c0.24,0.936,0.095,1.894-0.445,2.876c-0.476,0.869-2.057,1.564-2.842,2.294
	c-0.275,0.253,0.097,0.977,1.083,1.504c1.582,0.846,2.971,0.147,4.164-2.076c6.744-12.575,7.464-13.751,14.208-26.328
	c-1.42-0.743-2.127-1.121-3.539-1.888c0.354-0.636,0.532-0.954,0.887-1.594c5.28,2.861,7.948,4.218,13.34,6.78
	c-0.318,0.655-0.478,0.985-0.795,1.639c-1.36-0.646-2.038-0.977-3.391-1.641c-4.389,8.717-3.933,7.962-8.321,16.68
	C363.736,654.697,362.235,657.166,360.943,658.675z M389.735,675.157c-3.871,2.3-7.793,2.678-11.615,1.119
	c-4.128-1.682-6.736-4.848-7.707-9.355c-0.971-4.505-0.196-9.254,2.174-14.255c2.409-5.081,5.629-8.652,9.537-10.825
	c3.906-2.173,7.467-2.587,10.825-1.218c3.116,1.27,5.277,3.907,6.614,7.988c1.335,4.082,1.018,9.031-1.103,14.857
	C396.474,668.924,393.606,672.854,389.735,675.157z M410.565,687.006c-6.49-1.874-9.717-2.898-16.125-5.117
	c0.244-0.688,0.366-1.032,0.609-1.72c1.632,0.568,2.453,0.843,4.093,1.388c4.363-12.844,6.543-19.267,10.907-32.112
	c-1.465-0.484-2.194-0.734-3.653-1.24c0.244-0.686,0.366-1.025,0.61-1.713c5.649,1.956,8.494,2.859,14.218,4.515
	c-0.206,0.696-0.311,1.046-0.517,1.745c-1.529-0.441-2.291-0.667-3.814-1.132c-4.033,12.949-6.049,19.42-10.083,32.371
	c1.706,0.521,2.561,0.773,4.273,1.271C410.874,685.957,410.773,686.31,410.565,687.006z M449.018,659.399
	c-0.403-0.073-0.603-0.114-1.004-0.188c-1.085-0.201-1.801-0.122-2.155,0.247c-0.355,0.37-0.659,1.186-0.91,2.446
	c-2.582,12.942-3.876,19.406-6.461,32.35c-0.694-0.136-1.042-0.199-1.735-0.34c-4.99-14.456-7.068-21.733-10.4-36.265
	c-2.83,10.474-4.246,15.708-7.077,26.182c-0.396,1.459-0.517,2.433-0.361,2.918c0.155,0.485,0.842,0.885,2.057,1.194
	c0.739,0.188,1.109,0.283,1.85,0.464c-0.18,0.706-0.271,1.061-0.451,1.766c-4.054-1.006-6.073-1.543-10.099-2.683
	c0.202-0.699,0.304-1.051,0.507-1.749c0.5,0.141,0.747,0.213,1.249,0.354c1.271,0.352,2.103,0.316,2.488-0.104
	c0.386-0.417,0.868-1.669,1.445-3.759c2.759-9.993,4.138-14.987,6.897-24.98c0.377-1.369,0.511-2.258,0.407-2.663
	c-0.108-0.407-0.653-0.741-1.634-1.016c-0.613-0.17-0.921-0.256-1.534-0.43c0.202-0.698,0.304-1.047,0.506-1.746
	c4.23,1.2,6.358,1.758,10.622,2.792c2.348,9.646,3.706,14.469,6.792,24.082c1.299-6.327,1.949-9.491,3.248-15.817
	c0.341-1.662,0.433-2.77,0.279-3.325c-0.152-0.551-0.774-0.938-1.868-1.167c-0.537-0.113-0.805-0.171-1.342-0.286
	c0.156-0.71,0.233-1.066,0.39-1.778c3.443,0.736,5.169,1.083,8.629,1.714C449.217,658.324,449.151,658.685,449.018,659.399z
	 M476.609,663.546c-0.272,0.303-0.473,1.183-0.598,2.631c-0.673,7.735-1.009,11.605-1.682,19.342
	c-0.215,2.453-0.604,4.583-1.173,6.396c-0.57,1.813-1.795,3.373-3.706,4.648c-1.91,1.276-4.735,1.722-8.429,1.27
	c-1.944-0.239-3.799-0.744-5.558-1.509c-1.758-0.767-3.114-1.888-4.058-3.358c-0.945-1.466-1.442-2.903-1.51-4.303
	c-0.067-1.398,0.053-3.005,0.354-4.806c1.579-9.426,2.371-14.138,3.95-23.563c-1.511-0.245-2.263-0.375-3.771-0.644
	c0.13-0.717,0.195-1.075,0.324-1.791c5.854,1.036,8.788,1.478,14.674,2.207c-0.09,0.722-0.135,1.086-0.228,1.808
	c-1.584-0.195-2.375-0.299-3.958-0.518c-1.358,9.595-2.038,14.389-3.396,23.985c-0.543,3.839-0.308,6.496,0.729,7.96
	c1.038,1.463,2.613,2.331,4.705,2.577c1.578,0.181,3.044-0.012,4.386-0.565c1.339-0.556,2.439-1.491,3.287-2.812
	c0.85-1.313,1.42-3.638,1.727-6.961c0.729-7.889,1.097-11.831,1.825-19.719c0.12-1.28,0.129-2.095,0.031-2.44
	c-0.099-0.346-0.697-0.568-1.79-0.677c-0.795-0.076-1.191-0.112-1.984-0.197c0.078-0.722,0.115-1.087,0.192-1.809
	c3.669,0.383,5.508,0.54,9.184,0.806c-0.053,0.726-0.08,1.09-0.134,1.814c-0.544-0.04-0.817-0.061-1.362-0.101
	C477.561,663.136,476.883,663.241,476.609,663.546z M507.412,663.984c-1.1,0.026-1.78,0.249-2.046,0.683
	c-0.27,0.434-0.396,1.297-0.379,2.583c0.202,13.189,0.303,19.781,0.502,32.972c-0.706,0.012-1.062,0.014-1.765,0.019
	c-7.89-13.117-11.431-19.809-17.701-33.331c-0.558,10.826-0.838,16.241-1.398,27.064c-0.079,1.508,0.007,2.486,0.26,2.93
	c0.251,0.442,1.003,0.689,2.247,0.74c0.757,0.033,1.135,0.05,1.893,0.075c-0.028,0.728-0.042,1.093-0.069,1.82
	c-4.147-0.147-6.216-0.256-10.359-0.537c0.05-0.728,0.074-1.091,0.125-1.815c0.514,0.035,0.769,0.05,1.283,0.082
	c1.309,0.085,2.107-0.124,2.395-0.614c0.286-0.488,0.494-1.811,0.617-3.971c0.591-10.343,0.886-15.515,1.476-25.856
	c0.08-1.417,0.025-2.31-0.163-2.686c-0.188-0.375-0.788-0.589-1.798-0.651c-0.631-0.04-0.945-0.059-1.577-0.103
	c0.05-0.726,0.076-1.089,0.125-1.813c4.353,0.297,6.532,0.405,10.893,0.537c4.299,8.951,6.63,13.389,11.65,22.16
	c-0.063-6.457-0.096-9.688-0.159-16.143c-0.017-1.694-0.156-2.797-0.421-3.307c-0.264-0.512-0.953-0.76-2.065-0.759
	c-0.545,0-0.82,0-1.366-0.003c0.002-0.728,0.007-1.092,0.012-1.818c3.504,0.013,5.254-0.007,8.757-0.101
	c0.019,0.727,0.025,1.09,0.044,1.817C508.019,663.97,507.818,663.978,507.412,663.984z M511.119,699.584
	c-0.023-0.728-0.039-1.089-0.064-1.815c1.709-0.054,2.562-0.087,4.27-0.167c-0.626-13.533-0.94-20.301-1.57-33.835
	c-1.523,0.07-2.285,0.101-3.81,0.149c-0.026-0.727-0.035-1.092-0.059-1.82c5.901-0.19,8.854-0.36,14.743-0.854
	c0.063,0.725,0.09,1.092,0.153,1.816c-1.571,0.131-2.36,0.189-3.934,0.303c0.971,13.513,1.454,20.268,2.425,33.783
	c1.764-0.124,2.645-0.19,4.406-0.34c0.063,0.725,0.094,1.088,0.158,1.813C521.159,699.178,517.813,699.368,511.119,699.584z
	 M551.175,669.389c-2.146-6.146-5.209-8.863-9.304-8.272c-1.816,0.262-2.723,0.38-4.541,0.612c0.822,6.268,1.233,9.402,2.057,15.671
	c0.289-0.037,0.439-0.059,0.73-0.096c3.529-0.461,5.13-2.943,4.8-7.363c0.656-0.1,0.984-0.147,1.642-0.252
	c0.972,6.103,1.461,9.151,2.436,15.254c-0.606,0.094-0.906,0.138-1.513,0.229c-0.401-1.863-1.153-3.41-2.237-4.647
	c-1.085-1.234-2.709-1.701-4.887-1.417c-0.294,0.039-0.441,0.06-0.732,0.096c0.846,6.447,1.269,9.672,2.116,16.117
	c1.852-0.237,2.773-0.364,4.622-0.629c0.107,0.72,0.163,1.083,0.268,1.804c-6.681,0.952-10.036,1.344-16.751,1.946
	c-0.065-0.725-0.101-1.093-0.168-1.817c1.646-0.148,2.467-0.223,4.111-0.392c-1.422-13.477-2.134-20.212-3.56-33.688
	c-1.467,0.151-2.196,0.223-3.666,0.355c-0.065-0.725-0.104-1.088-0.168-1.813c9.645-0.87,14.457-1.505,24.018-3.19
	c0.909,4.486,1.359,6.729,2.276,11.219C552.104,669.224,551.795,669.28,551.175,669.389z M583.157,684.215
	c-1.769,4.095-4.704,6.649-8.68,7.573c-4.294,0.999-8.219-0.08-11.623-3.189c-3.404-3.11-5.556-7.417-6.582-12.843
	c-1.046-5.519-0.57-10.271,1.277-14.279c1.843-4.005,4.446-6.378,7.939-7.191c3.241-0.753,6.523,0.152,9.994,2.701
	c3.479,2.554,6.136,6.757,7.85,12.714C584.938,675.274,584.926,680.122,583.157,684.215z M617.631,678.162
	c-2.406,0.929-4.608,0.965-6.564,0.126c-1.956-0.837-3.629-3.046-5.033-6.611c-1.409-3.56-2.659-5.761-3.741-6.608
	c-1.081-0.847-2.53-0.955-4.361-0.338c-0.634,0.214-0.952,0.316-1.588,0.525c2.221,6.568,3.332,9.857,5.554,16.426
	c1.632-0.541,2.45-0.813,4.073-1.374c0.244,0.688,0.363,1.032,0.605,1.717c-6.276,2.167-9.44,3.166-15.798,5.003
	c-0.209-0.697-0.31-1.054-0.517-1.75c1.6-0.462,2.397-0.696,3.989-1.18c-4.02-12.953-6.024-19.431-10.042-32.386
	c-1.424,0.432-2.139,0.643-3.563,1.056c-0.209-0.699-0.308-1.049-0.516-1.748c5.609-1.615,8.394-2.497,13.929-4.408
	c4.435-1.529,7.756-1.809,10.054-0.706c2.296,1.102,3.862,2.612,4.653,4.57c0.84,2.081,0.797,4.156-0.167,6.228
	c-0.959,2.072-2.927,3.938-5.898,5.527c0.017,0.045,0.023,0.066,0.04,0.107c2.634-0.124,4.766,0.156,6.396,0.887
	c1.63,0.732,2.888,1.743,3.753,3.047c0.867,1.307,1.705,2.938,2.509,4.901c0.805,1.961,1.436,3.126,1.891,3.488
	c0.452,0.362,1.036,0.405,1.757,0.12c0.792-0.313,1.541-0.941,2.228-1.886c0.328,0.787,0.485,1.184,0.814,1.969
	C620.956,676.349,619.467,677.453,617.631,678.162z M644.825,666.012c-0.333-0.648-0.497-0.977-0.83-1.626
	c1.568-0.777,2.354-1.173,3.914-1.975c-5.948-11.307-8.919-16.961-14.868-28.27c3.189,13.544,4.592,20.387,7.007,34.191
	c-0.415,0.198-0.624,0.298-1.039,0.495c-9.497-10.634-14.068-16.077-22.832-27.163c4.639,10.413,6.96,15.619,11.602,26.032
	c0.641,1.436,1.215,2.306,1.735,2.622c0.519,0.312,1.499,0.157,2.932-0.484c0.425-0.188,0.638-0.287,1.061-0.479
	c0.305,0.661,0.459,0.997,0.767,1.659c-4.069,1.838-6.114,2.72-10.23,4.411c-0.281-0.669-0.424-1.01-0.708-1.68
	c0.751-0.308,1.123-0.463,1.872-0.774c1.184-0.497,1.806-1.029,1.866-1.581c0.062-0.558-0.204-1.508-0.795-2.86
	c-4.866-11.087-7.299-16.631-12.165-27.715c-1.573,0.676-2.366,1.009-3.949,1.658c-0.281-0.671-0.422-1.008-0.706-1.679
	c4.545-1.869,6.804-2.854,11.283-4.926c5.723,6.938,8.656,10.364,14.677,17.112c-1.715-8.843-2.65-13.237-4.69-21.972
	c4.144-2.115,6.198-3.217,10.273-5.514c0.363,0.631,0.546,0.949,0.91,1.58c-1.34,0.754-2.008,1.127-3.354,1.861
	c6.633,11.857,9.946,17.788,16.579,29.646c1.511-0.823,2.261-1.24,3.765-2.087c0.363,0.633,0.548,0.951,0.909,1.582
	C653.88,661.42,650.881,663.007,644.825,666.012z"/>
<path fill="#ECD100" d="M597.956,648.508c-0.952-0.553-2.247-0.539-3.894,0.027c-1.21,0.413-1.819,0.618-3.034,1.02
	c1.89,5.593,2.842,8.387,4.732,13.979c1.114-0.365,1.668-0.556,2.774-0.934c1.923-0.654,3.099-1.552,3.525-2.666
	c0.424-1.114,0.067-3.189-1.054-6.225C599.931,650.797,598.91,649.064,597.956,648.508z"/>
<path fill="#ECD100" d="M537.612,545.542c2.561-1.792,5.06-3.666,7.285-5.87c4.423-4.379,7.55-9.581,9.705-15.388
	c0.168-0.445,0.327-0.894,0.49-1.337c0.22,0.223,0.3,0.425,0.34,0.636c0.396,2.108,0.772,4.219,1.18,6.325
	c0.08,0.417,0,1.021,0.573,1.116c0.564,0.093,0.707-0.495,0.931-0.863c1.227-2.023,1.991-4.235,2.51-6.526
	c1.453-6.403,1.612-12.89,1.197-19.41c-0.049-0.767-0.334-0.988-1.093-0.773c-1.471,0.408-2.961,0.785-4.371,1.354
	c-6.55,2.636-11.713,7.041-15.901,12.652c-0.1,0.131-0.199,0.263-0.271,0.408c-0.251,0.499-0.046,0.816,0.522,0.816
	c0.16,0,0.321-0.04,0.481-0.073c2.634-0.574,5.266-1.146,7.903-1.723c0.267-0.06,0.537-0.113,0.935-0.198
	c-0.136,0.319-0.194,0.5-0.286,0.664c-1.669,3.065-3.573,5.974-5.859,8.616c-2.644,3.056-5.658,5.657-9.336,7.404
	c-3.746,1.777-7.65,2.499-11.761,1.597c-2.911-0.638-5.176-1.953-6.736-3.984c-0.736,0.314-1.506,0.48-2.304,0.48
	c-5.169,0-9.759-6.822-13.665-14.245c-0.361,0.826-0.816,1.999-1.371,3.663c-0.885,2.658-6.559,10.346-12.496,10.346
	c-0.76,0-1.487-0.127-2.181-0.367c-0.89,1.207-2.035,2.206-3.504,2.936c-3.147,1.562-6.462,1.883-9.888,1.269
	c-3.91-0.7-7.296-2.503-10.335-4.997c-4.348-3.568-7.533-8.055-10.174-12.966c-0.047-0.093-0.04-0.22-0.07-0.413
	c0.34,0.078,0.584,0.137,0.833,0.19c2.599,0.57,5.202,1.144,7.805,1.703c0.398,0.087,0.886,0.312,1.155-0.164
	c0.262-0.465-0.185-0.784-0.421-1.103c-2.57-3.487-5.626-6.476-9.184-8.951c-3.314-2.309-6.912-4.007-10.868-4.895
	c-0.907-0.205-1.154-0.038-1.212,0.839c-0.382,5.83-0.243,11.642,0.797,17.401c0.528,2.925,1.337,5.765,2.859,8.354
	c0.148,0.253,0.289,0.516,0.48,0.733c0.374,0.423,0.728,0.332,0.932-0.211c0.047-0.119,0.08-0.249,0.103-0.375
	c0.344-1.789,0.685-3.574,1.025-5.366c0.116-0.624,0.221-1.252,0.331-1.88c0.068-0.004,0.136-0.013,0.207-0.018
	c0.15,0.41,0.311,0.816,0.459,1.227c2.824,7.702,7.346,14.154,13.938,19.117c4.273,3.213,8.78,6.057,13.34,8.82
	c4.062,2.462,8.136,4.901,12.172,7.401c1.072,0.665,2.12,1.421,3.016,2.3c2.886,2.824,5.595,5.819,7.987,9.075
	c0.943,1.28,1.798,2.631,2.583,4.014c0.409,0.719,0.614,1.564,0.839,2.371c0.176,0.616,0.266,0.749,0.804,0.747
	c0.507,0,0.619-0.301,0.723-0.732c0.176-0.721,0.349-1.473,0.702-2.11c0.721-1.309,1.495-2.593,2.363-3.809
	c2.12-2.972,4.587-5.652,7.079-8.314c1.319-1.414,2.785-2.636,4.424-3.652c2.212-1.37,4.423-2.74,6.654-4.076
	C527.264,552.169,532.57,549.066,537.612,545.542z"/>
<path fill="#ECD100" d="M473.225,433.41c-0.6-0.556-1.18-1.102-1.747-1.645c-0.228,0.335-0.469,0.687-0.725,1.056l0.306,1.922
	c0.282-0.175,0.562-0.351,0.843-0.524C472.342,433.947,472.784,433.681,473.225,433.41z"/>
<path fill="#ECD100" d="M469.597,435.652l-0.152-0.955c-0.427,0.602-0.879,1.236-1.35,1.89
	C468.596,436.273,469.095,435.964,469.597,435.652z"/>
<path fill="#ECD100" d="M442.587,457.173c0.496,0.344,1.064,0.496,1.689,0.496c0.242-0.469,0.55-0.968,0.975-1.449
	c0.009-0.073,0.047-0.356,0.047-0.356c0.242-1.834,0.543-4.116,2.067-6.051c0.775-0.975,1.735-1.801,3.022-2.599
	c0.598-0.368,1.211-0.698,1.802-1.013l0.735-0.396c1.867-1.03,3.772-2.146,5.824-3.413l1.676-1.036
	c1.332-0.822,2.66-1.652,3.989-2.481c1.039-1.384,2.017-2.723,2.906-3.962l-5.729,1.324l-1.168-3.596
	c-5.012,5.882-11.714,13.315-17.662,18.469C441.499,454.003,441.238,456.238,442.587,457.173z"/>
<path fill="#ECD100" d="M469.808,430.129c-0.598-0.607-2.218-1.885-4.379-3.506c-1.029,1.269-2.323,2.84-3.802,4.595l1.023,3.149
	l6.052-1.404c0.604-0.859,1.146-1.641,1.617-2.33C470.148,430.465,469.979,430.3,469.808,430.129z"/>
<path fill="#ECD100" d="M452.216,429.793l1.389,3.009l5.725-1.379c1.857-2.175,3.455-4.093,4.618-5.511l-5.873-2.221
	C456.738,425.116,454.695,427.27,452.216,429.793z"/>
<path fill="#ECD100" d="M431.039,455.356c4.188,2.504,17.562-11.581,26.512-21.876l-4.842,1.168l-1.683-3.654
	c-5.622,5.664-13.1,12.803-19.896,17.99C429.592,451.982,429.301,454.318,431.039,455.356z"/>
<path fill="#ECD100" d="M443.113,426.599l0.477,4.112l5.691-0.248c3.043-3.044,5.576-5.685,7.181-7.385l-6.423-2.431
	C448.668,421.848,446.217,423.975,443.113,426.599z"/>
<path fill="#ECD100" d="M447.61,432.122l-5.42,0.237l-0.532-4.536c-6.623,5.561-15.641,12.873-23.681,18.492
	c-2.591,3.485-3.691,6.241-2.165,7.428C420.499,457.385,436.618,442.967,447.61,432.122z"/>
<path fill="#ECD100" d="M432.412,429.465l-1.269-3.868c-8.458,6.647-20.333,15.636-30.293,21.892
	c-1.182,1.968-1.632,3.64-1.067,4.841c2.329,4.927,23.565-11.45,37.618-23.052L432.412,429.465z"/>
<path fill="#ECD100" d="M432.467,424.553l1.079,3.285l5.86-0.223c3.967-3.307,7.184-6.075,8.945-7.605l-6.963-2.636
	C439.977,418.531,436.738,421.179,432.467,424.553z"/>
<path fill="#ECD100" d="M431.671,415.152c-1.059,0.818-3.892,2.993-7.793,5.897l1.23,3.124l5.927-0.538
	c4.01-3.153,7.125-5.676,8.64-6.909l-6.735-2.552L431.671,415.152z"/>
<path fill="#ECD100" d="M382.604,452.188c2.593,5.987,29.897-14.095,46.131-26.751l-4.667,0.421l-1.509-3.83
	c-10.414,7.714-27.199,19.698-39.399,26.168C382.372,449.756,382.137,451.112,382.604,452.188z"/>
<path fill="#ECD100" d="M422.518,411.332c-0.462,0.335-3.07,2.235-7.019,5.023l0.341,3.537l6.318,0.34
	c4.038-2.979,7.226-5.389,8.991-6.734l-7.618-2.883L422.518,411.332z"/>
<path fill="#ECD100" d="M368.633,449.927c2.544,6.445,33.605-15.096,51.512-28.216l-5.753-0.31l-0.39-3.994
	c-10.961,7.705-30.24,20.825-44.647,28.317C368.478,447.35,368.183,448.781,368.633,449.927z"/>
<path fill="#ECD100" d="M402.055,409.364l-1.293,6.235h13.028c4.02-2.824,6.904-4.905,7.948-5.663l-10.955-4.146
	C408.509,406.517,405.5,407.759,402.055,409.364z"/>
<path fill="#ECD100" d="M351.231,448.461c2.969,7.518,41.232-17.976,60.292-31.276h-12.712l1.443-6.968
	C380.296,419.828,347.988,440.241,351.231,448.461z"/>
<path fill="#ECD100" d="M439.965,408.796c-0.446-0.515-0.701-1.06-0.861-1.51c-1.112-0.704-2.228-1.398-3.342-2.094
	c-8.253-1.518-16.313-1.947-22.5-0.17l46.831,17.685c-7.29-5.269-16.106-11.396-17.304-12.139c-0.012,0-0.118-0.039-0.228-0.08
	c-0.377-0.15-0.882-0.349-1.396-0.668C440.704,409.533,440.3,409.189,439.965,408.796z"/>
<path fill="#ECD100" d="M529.243,432.821c-0.256-0.371-0.497-0.725-0.727-1.061c-0.577,0.552-1.16,1.104-1.749,1.649
	c0.442,0.272,0.886,0.537,1.326,0.81c0.228,0.141,0.52,0.321,0.846,0.524L529.243,432.821z"/>
<path fill="#ECD100" d="M530.404,435.652c0.508,0.315,1.023,0.635,1.5,0.932c-0.471-0.651-0.925-1.286-1.349-1.887L530.404,435.652z
	"/>
<path fill="#ECD100" d="M538.41,436.237l-5.732-1.324c0.888,1.239,1.866,2.579,2.906,3.962c1.329,0.829,2.659,1.659,3.989,2.481
	l1.677,1.036c2.063,1.273,3.967,2.39,5.822,3.413c0.23,0.126,0.463,0.252,0.696,0.375c0.625,0.333,1.239,0.664,1.834,1.032
	c1.292,0.8,2.25,1.623,3.022,2.594c1.528,1.937,1.831,4.214,2.074,6.046c0,0,0.039,0.307,0.048,0.369
	c0.423,0.48,0.731,0.977,0.975,1.448c0.626,0.002,1.194-0.152,1.69-0.496c1.349-0.935,1.088-3.169-0.174-6.063
	c-5.945-5.154-12.648-12.587-17.661-18.469L538.41,436.237z"/>
<path fill="#ECD100" d="M530.186,430.13c-0.167,0.17-0.34,0.33-0.509,0.496c0.47,0.692,1.013,1.475,1.618,2.337l6.054,1.404
	l1.023-3.149c-1.478-1.755-2.773-3.329-3.803-4.598C532.407,428.243,530.785,429.522,530.186,430.13z"/>
<path fill="#ECD100" d="M540.672,431.423l5.724,1.379l1.387-3.009c-2.477-2.524-4.521-4.678-5.858-6.103l-5.871,2.221
	C537.216,427.331,538.811,429.248,540.672,431.423z"/>
<path fill="#ECD100" d="M542.448,433.48c8.952,10.296,22.324,24.38,26.511,21.876c1.738-1.039,1.447-3.375-0.092-6.372
	c-6.795-5.188-14.271-12.327-19.895-17.99l-1.681,3.654L542.448,433.48z"/>
<path fill="#ECD100" d="M543.539,423.079c1.604,1.701,4.135,4.341,7.181,7.385l5.687,0.248l0.479-4.112
	c-3.104-2.625-5.554-4.751-6.925-5.951L543.539,423.079z"/>
<path fill="#ECD100" d="M557.81,432.359l-5.42-0.237c10.993,10.845,27.111,25.263,31.795,21.621
	c1.529-1.187,0.429-3.942-2.165-7.428c-8.039-5.619-17.055-12.932-23.68-18.492L557.81,432.359z"/>
<path fill="#ECD100" d="M600.212,452.329c0.567-1.201,0.117-2.873-1.063-4.841c-9.96-6.256-21.834-15.244-30.296-21.892
	l-1.268,3.868l-4.987-0.188C576.649,440.879,597.883,457.256,600.212,452.329z"/>
<path fill="#ECD100" d="M551.646,420.009c1.761,1.53,4.979,4.299,8.947,7.605l5.859,0.223l1.078-3.285
	c-4.27-3.374-7.509-6.021-8.92-7.18L551.646,420.009z"/>
<path fill="#ECD100" d="M567.062,414.174l-6.736,2.552c1.515,1.233,4.631,3.756,8.637,6.909l5.929,0.538l1.23-3.124
	c-3.902-2.904-6.732-5.079-7.794-5.897L567.062,414.174z"/>
<path fill="#ECD100" d="M617.394,452.188c0.467-1.077,0.234-2.432-0.556-3.992c-12.2-6.471-28.985-18.454-39.4-26.168l-1.506,3.83
	l-4.667-0.421C587.496,438.093,614.802,458.176,617.394,452.188z"/>
<path fill="#ECD100" d="M584.159,419.892l0.342-3.537c-3.951-2.789-6.558-4.688-7.02-5.023l-1.013-0.718l-7.617,2.883
	c1.764,1.345,4.95,3.756,8.989,6.734L584.159,419.892z"/>
<path fill="#ECD100" d="M631.364,449.927c0.453-1.146,0.157-2.577-0.725-4.203c-14.404-7.492-33.683-20.612-44.646-28.317
	l-0.388,3.994l-5.753,0.31C597.762,434.831,628.819,456.372,631.364,449.927z"/>
<path fill="#ECD100" d="M597.946,409.364c-3.447-1.604-6.458-2.847-8.731-3.574l-10.957,4.146c1.049,0.757,3.934,2.839,7.953,5.663
	h13.025L597.946,409.364z"/>
<path fill="#ECD100" d="M601.186,417.185h-12.711c19.06,13.3,57.326,38.794,60.295,31.276c3.241-8.22-29.065-28.633-49.026-38.244
	L601.186,417.185z"/>
<path fill="#ECD100" d="M564.234,405.191c-1.115,0.696-2.23,1.393-3.343,2.097c-0.164,0.456-0.42,0.997-0.864,1.515
	c-0.336,0.389-0.737,0.733-1.2,1.018c-0.51,0.317-1.017,0.516-1.386,0.663c-0.115,0.045-0.222,0.083-0.306,0.125
	c-1.155,0.718-9.956,6.834-17.237,12.102l46.84-17.689C580.55,403.245,572.486,403.674,564.234,405.191z"/>
<path fill="#ECD100" d="M391.488,511.718c3.843,4.16,7.795,8.217,11.575,12.433c2.478,2.764,4.739,5.725,7.082,8.61
	c0.85,1.044,1.167,1.104,2.416,0.59c1.164-0.482,1.836-1.362,2.458-2.396c3.103-5.162,6.255-10.353,9.517-15.411
	c6.086-9.438,25.847-36.041,26.492-36.928c0.316-0.434,0.649-0.843,0.992-1.243c-0.051-0.055-0.111-0.098-0.16-0.159l-7.812-9.855
	c-2.519,2.21-13.38,11.834-16.239,13.102c-1.632,0.726-3.504,0.456-5.202,1.42c-4.677,2.658-8.525,6.576-12.454,10.197
	c-4.25,3.917-8.522,7.81-12.993,11.475c-2.041,1.673-4.008,3.408-5.978,5.146c-0.424,0.373-0.642,0.832-0.495,1.332
	C390.869,510.622,391.087,511.278,391.488,511.718z"/>
<path fill="#ECD100" d="M559.565,401.8c0.377-0.218,0.602-0.493,0.599-0.969c0.003-0.172,0.181-0.408,0.343-0.514
	c1.33-0.849,2.661-1.694,4.014-2.502c2.656-1.589,5.327-3.152,7.991-4.728c-0.025-0.044-0.054-0.09-0.074-0.134
	c0.436-0.204,0.86-0.428,1.306-0.598c0.127-0.054,0.392-0.007,0.443,0.08c0.085,0.138,0.105,0.38,0.04,0.528
	c-0.07,0.157-0.253,0.284-0.41,0.381c-1.604,0.991-3.204,1.979-4.811,2.963c-1.967,1.208-3.938,2.406-5.899,3.615
	c-1.221,0.751-2.438,1.511-3.656,2.267l0.857,1.384c1.909-1.201,3.82-2.403,5.734-3.595c2.845-1.775,5.647-3.941,8.633-5.451
	c1.191-0.605,2.937-0.692,3.884-1.656c0.321-0.331,0.347-0.812,0.663-1.142c0.45-0.469,1.203-0.769,1.759-1.1
	c6.891-4.128,13.561-8.678,20.632-12.496c1.522-0.817,4.041-1.447,4.728-3.22c0.301-0.779-0.101-1.752,0.357-2.47
	c0.581-0.914,2.194-0.808,2.577-1.881c0.39-1.102-0.81-2.733-1.555-3.426c-1.159-1.078-3.835,2.052-4.346-0.652
	c-0.181-0.942-1.924-1.091-2.65-2.099c-1.143-1.581-1.124-4.034-2.362-5.446c-1.54-1.751-5.126,0.361-5.047,2.371
	c0.059,1.458,1.236,3.087,1.591,4.519c0.506,2.049,0.318,4.172,0.532,6.256c0.035,0.334,0.146,0.681,0.303,0.979
	c0.176,0.352,0.126,0.565-0.209,0.76c-0.721,0.411-9.389,5.652-13.025,7.814c-1.36,0.809-3.847,0.937-5.401,0.795
	c-2.09-0.188-4.081-1.438-5.937-2.329c-0.621-0.295-1.17-0.237-1.747,0.112c-3.874,2.357-13.739,7.98-17.344,10.051l7.228,11.684
	C559.393,401.903,559.478,401.85,559.565,401.8z M597.37,367.258c0.556-0.371,1.135-0.701,1.719-1.026
	c0.847-0.473,1.421-0.323,1.968,0.476c0.544,0.795,0.447,1.288-0.368,1.775c-0.723,0.434-1.447,0.856-2.172,1.286
	c-0.638,0.513-1.037,0.496-1.44,0.039C596.472,369.118,596.609,367.761,597.37,367.258z M584.029,385.866
	c4.563-2.723,9.112-5.464,13.674-8.193c0.166-0.102,0.382-0.146,0.579-0.184c0.38-0.073,0.785-0.058,1.135-0.197
	c0.57-0.223,1.104-0.542,1.658-0.809c0.12-0.059,0.27-0.063,0.405-0.094c-0.094,0.087-0.18,0.187-0.285,0.256
	c-0.974,0.618-1.936,1.248-2.93,1.838c-3.755,2.229-7.517,4.447-11.278,6.67c0.021,0.037,0.047,0.076,0.068,0.111
	c-0.847,0.503-1.687,1.005-2.543,1.494c-0.211,0.123-0.443,0.442-0.706,0C583.575,386.358,583.619,386.113,584.029,385.866z
	 M557.573,395.896c-0.257-0.208-0.588-0.33-0.891-0.479c-0.193-0.094-0.393-0.168-0.592-0.248c0.163-0.156,0.301-0.339,0.48-0.452
	c1.6-1.001,3.205-1.991,4.813-2.976c2.661-1.625,5.32-3.248,7.987-4.866c0.934-0.568,1.074-0.522,1.585,0.43
	c0.062,0.121,0.179,0.248,0.164,0.358c-0.032,0.237-0.061,0.556-0.218,0.676c-0.525,0.411-1.1,0.773-1.677,1.115
	c-3.026,1.799-6.058,3.583-9.092,5.375c0.023,0.038,0.046,0.075,0.064,0.114c-0.563,0.332-1.134,0.651-1.685,1.002
	C558.172,396.165,557.898,396.153,557.573,395.896z"/>
<path fill="#ECD100" d="M475.845,469.825c-0.976,0.504-4.165,2.136-15.164,7.765c2.089,1.731,2.23,5.699,2.631,8.11
	c0.544,3.285,0.927,6.604,1.36,9.902c0.671,5.087,9.36,3.966,12.257,2.017c2.462-1.66,2.238-3.043,1.277-5.479
	c-0.768-1.941-1.317-3.978-1.728-6.022c-0.842-4.188-1.149-8.456-1.528-12.707c-0.02-0.242,0.005-0.516,0.101-0.736
	C475.446,471.77,475.835,470.818,475.845,469.825z"/>
<path fill="#ECD100" d="M476.15,451.106c-1.456-7.004-2.327-11.406-2.132-13.465c0.019-0.186,0.04-0.426,0.069-0.706
	c-4.516,2.789-9.002,5.619-13.522,8.401c-1.962,1.21-3.952,2.385-5.972,3.497c-1.588,0.875-3.36,1.67-4.509,3.122
	c-1.216,1.541-1.223,3.828-1.549,5.686c-0.028,0.146-0.061,0.344-0.162,0.411c-0.903,0.592-1.193,1.577-1.581,2.487
	c-0.088,0.205-0.008,0.523,0.084,0.751c0.028,0.067,0.379-0.029,0.568,0.013c0.115,0.023,0.287,0.168,0.291,0.261
	c0.022,0.607,0.059,1.227-0.016,1.829c-0.078,0.605-0.5,1.188-1.034,1.729l7.882,9.939c0.647-0.431,1.344-0.804,2.121-1.079
	c0.375-0.134,0.623-0.104,0.82,0.262c0.15,0.285,0.326,0.557,0.502,0.833c0,0,16.482-8.434,16.49-8.444
	c-0.61-0.849-1.225-1.694-1.851-2.538c-0.27-0.361-0.225-0.562,0.244-0.589c0.654-0.042,1.316-0.013,1.958-0.117
	c0.878-0.146,1.479,0.23,2.008,0.852c0.489,0.571,1.032,0.98,1.613,1.267c-0.018-0.408-0.037-0.795-0.058-1.161
	c-0.622-0.673-0.945-1.651-0.969-2.548c-0.012-0.396,0.209-0.918,0.519-1.385C477.531,457.759,476.833,454.395,476.15,451.106z"/>
<path fill="#ECD100" d="M477.463,469.869c-0.231-0.033-0.467-0.084-0.713-0.165c-0.086-0.029-0.157-0.063-0.231-0.098
	c-0.019,0.239-0.045,0.525-0.083,0.834c0.213,0.067,0.427,0.135,0.64,0.198c0.316,0.096,0.636,0.184,0.958,0.246
	c0.196,0.038,0.391,0.054,0.582,0.056c-0.004-0.363-0.01-0.725-0.018-1.077C478.235,469.921,477.858,469.928,477.463,469.869z"/>
<path fill="#ECD100" d="M530.01,401.73c-0.202,1.141-0.394,2.22-0.477,3.29l-0.261,3c0.008,0.366-0.005,0.741-0.03,1.121
	l4.762-2.945c0.928-0.576,2.129-0.312,2.75,0.572l4.574-2.833c-0.517-0.945-0.213-2.142,0.717-2.714l4.835-2.99
	c0.961-0.598,2.226-0.298,2.822,0.664c0.592,0.962,0.297,2.226-0.665,2.821l-4.838,2.993c-0.817,0.504-1.846,0.361-2.505-0.282
	l-2.513,1.557c-0.356,0.228-0.606,0.387-0.695,0.438c-0.072,0.041-0.145,0.084-0.218,0.125l-1.241,0.771
	c0.281,0.873-0.052,1.856-0.868,2.363l-4.837,2.991c-0.662,0.41-1.467,0.387-2.101,0.022c-0.031,0.019-0.062,0.036-0.094,0.053
	c-0.113,0.061-0.266,0.147-0.374,0.117c-0.275-0.07-0.526-0.046-0.768,0.014c-0.03,0.085-0.056,0.165-0.067,0.241
	c-0.201,1.227-0.539,2.388-1.002,3.448c-0.084,0.185-0.134,0.382-0.191,0.577c-0.126,0.422-0.275,0.929-0.554,1.45l-0.345,1.563
	c-0.017,0.075-0.036,0.147-0.062,0.223c-0.031,0.091-0.049,0.347-0.063,0.553l-0.025,0.334c-0.073,0.787-0.359,1.373-0.746,1.8
	c0.029,0.161,0.055,0.32,0.083,0.483c0.298,1.724,0.644,3.753,0.898,5.917c0.611-0.583,1.221-1.168,1.814-1.771
	c2.938-2.974,25.748-18.887,27.656-20.069c0.603-0.375,1.546-0.525,2.021-1.081c0.149-0.173,0.23-0.394,0.292-0.622l-8.947-14.465
	c-0.121,0.006-0.249,0.015-0.382,0.025c-0.999,0.083-1.938,0.406-2.848,0.827c-1.324,0.613-9.489,5.216-15.354,8.521
	C530.114,401.134,530.065,401.432,530.01,401.73z"/>
<path fill="#ECD100" d="M547.978,477.372c0.343,0.4,0.677,0.809,0.99,1.243c0.646,0.888,20.406,27.49,26.495,36.928
	c3.26,5.059,6.416,10.249,9.515,15.411c0.621,1.034,1.299,1.914,2.458,2.396c1.25,0.514,1.568,0.454,2.418-0.59
	c2.34-2.886,4.601-5.847,7.08-8.61c3.78-4.216,7.732-8.272,11.574-12.433c0.403-0.439,0.619-1.096,0.799-1.688
	c0.148-0.5-0.067-0.959-0.492-1.332c-1.97-1.737-3.939-3.473-5.98-5.146c-4.468-3.666-8.743-7.559-12.992-11.475
	c-3.929-3.621-7.777-7.539-12.451-10.197c-1.7-0.964-3.569-0.694-5.204-1.42c-2.861-1.268-13.72-10.892-16.236-13.102l-7.808,9.85
	C548.092,477.271,548.03,477.315,547.978,477.372z"/>
<path fill="#ECD100" d="M393.3,372.444c0.456,0.718,0.055,1.691,0.357,2.47c0.688,1.773,3.206,2.403,4.727,3.22
	c7.07,3.818,13.74,8.368,20.629,12.496c0.552,0.331,1.31,0.631,1.76,1.1c0.319,0.331,0.345,0.812,0.667,1.142
	c0.944,0.964,2.689,1.051,3.882,1.656c2.984,1.509,5.789,3.675,8.631,5.451c1.914,1.192,3.825,2.395,5.737,3.595l0.854-1.384
	c-1.216-0.755-2.433-1.515-3.655-2.267c-1.963-1.209-3.933-2.408-5.902-3.615c-1.603-0.984-3.204-1.973-4.807-2.963
	c-0.157-0.097-0.342-0.224-0.411-0.381c-0.065-0.148-0.044-0.39,0.038-0.528c0.054-0.087,0.319-0.134,0.443-0.08
	c0.448,0.17,0.873,0.394,1.309,0.598c-0.023,0.043-0.053,0.089-0.075,0.134c2.665,1.576,5.333,3.139,7.99,4.728
	c1.354,0.808,2.683,1.653,4.017,2.502c0.158,0.105,0.336,0.341,0.339,0.514c-0.002,0.476,0.223,0.75,0.603,0.969
	c0.087,0.049,0.172,0.103,0.261,0.153l7.228-11.684c-3.606-2.069-13.474-7.693-17.346-10.051c-0.581-0.349-1.128-0.408-1.75-0.112
	c-1.855,0.891-3.846,2.141-5.934,2.329c-1.557,0.142-4.043,0.014-5.403-0.795c-3.637-2.162-12.304-7.404-13.023-7.814
	c-0.336-0.194-0.387-0.408-0.209-0.76c0.154-0.298,0.265-0.645,0.3-0.979c0.216-2.084,0.028-4.208,0.533-6.256
	c0.354-1.432,1.529-3.061,1.59-4.519c0.082-2.01-3.507-4.122-5.047-2.371c-1.24,1.412-1.219,3.865-2.359,5.446
	c-0.729,1.008-2.472,1.157-2.65,2.099c-0.511,2.704-3.189-0.426-4.348,0.652c-0.743,0.693-1.945,2.324-1.554,3.426
	C391.104,371.637,392.717,371.531,393.3,372.444z M429.041,387.305c0.509-0.952,0.649-0.998,1.585-0.43
	c2.667,1.618,5.326,3.241,7.984,4.866c1.61,0.985,3.214,1.975,4.816,2.976c0.178,0.113,0.319,0.295,0.479,0.452
	c-0.2,0.08-0.4,0.153-0.592,0.248c-0.302,0.15-0.631,0.272-0.891,0.479c-0.326,0.257-0.598,0.269-0.938,0.05
	c-0.553-0.352-1.125-0.671-1.686-1.002c0.02-0.039,0.041-0.076,0.065-0.114c-3.035-1.792-6.067-3.577-9.095-5.375
	c-0.577-0.342-1.149-0.705-1.676-1.115c-0.156-0.121-0.185-0.439-0.217-0.676C428.86,387.553,428.977,387.426,429.041,387.305z
	 M398.94,366.708c0.548-0.799,1.123-0.949,1.967-0.476c0.584,0.325,1.163,0.655,1.72,1.026c0.759,0.503,0.897,1.86,0.292,2.551
	c-0.401,0.457-0.802,0.474-1.44-0.039c-0.724-0.43-1.45-0.853-2.172-1.286C398.491,367.996,398.397,367.503,398.94,366.708z
	 M398.921,376.483c0.555,0.268,1.088,0.586,1.657,0.809c0.353,0.14,0.758,0.125,1.136,0.197c0.198,0.038,0.412,0.082,0.578,0.184
	c4.561,2.729,9.111,5.47,13.673,8.193c0.413,0.247,0.457,0.492,0.223,0.893c-0.26,0.442-0.493,0.123-0.706,0
	c-0.856-0.489-1.696-0.991-2.541-1.494c0.02-0.035,0.048-0.075,0.07-0.111c-3.765-2.223-7.527-4.44-11.282-6.67
	c-0.992-0.591-1.956-1.221-2.929-1.838c-0.106-0.069-0.191-0.169-0.286-0.256C398.65,376.419,398.801,376.424,398.921,376.483z"/>
<path fill="#ECD100" d="M523.069,497.618c2.898,1.949,11.588,3.07,12.256-2.017c0.431-3.297,0.815-6.617,1.359-9.902
	c0.4-2.411,0.542-6.378,2.63-8.11c-11.007-5.635-14.194-7.265-15.162-7.765c0.009,0.993,0.398,1.945,0.793,2.85
	c0.098,0.22,0.121,0.495,0.1,0.736c-0.38,4.25-0.684,8.519-1.525,12.707c-0.409,2.045-0.962,4.081-1.729,6.022
	C520.831,494.575,520.605,495.958,523.069,497.618z"/>
<path fill="#ECD100" d="M521.846,465.338c0.461-0.274,0.896-0.635,1.294-1.1c0.53-0.622,1.129-0.998,2.007-0.852
	c0.641,0.104,1.306,0.075,1.958,0.117c0.468,0.027,0.513,0.228,0.245,0.589c-0.624,0.843-1.239,1.688-1.853,2.538
	c0.009,0.011,16.49,8.444,16.49,8.444c0.177-0.276,0.354-0.548,0.504-0.833c0.197-0.366,0.441-0.396,0.816-0.262
	c0.777,0.274,1.476,0.647,2.125,1.079l7.88-9.939c-0.534-0.541-0.955-1.124-1.031-1.729c-0.077-0.603-0.043-1.222-0.018-1.829
	c0.003-0.093,0.174-0.237,0.29-0.261c0.189-0.042,0.538,0.054,0.567-0.013c0.093-0.229,0.171-0.546,0.086-0.751
	c-0.39-0.91-0.679-1.895-1.585-2.487c-0.099-0.067-0.133-0.265-0.16-0.411c-0.328-1.858-0.334-4.145-1.548-5.686
	c-1.148-1.452-2.922-2.247-4.511-3.122c-2.02-1.111-4.006-2.287-5.969-3.497c-4.431-2.725-8.83-5.498-13.253-8.232
	c-0.123,1.802-0.407,3.572-0.939,5.232c-2.098,6.543-3.193,12.582-3.275,17.975c0.346,0.491,0.6,1.059,0.587,1.484
	c-0.021,0.733-0.243,1.52-0.662,2.152C521.88,464.373,521.863,464.843,521.846,465.338z"/>
<path fill="#ECD100" d="M454.477,392.315c-0.909-0.421-1.847-0.745-2.849-0.827c-0.134-0.01-0.256-0.02-0.378-0.025l-8.948,14.465
	c0.062,0.228,0.142,0.448,0.291,0.622c0.477,0.556,1.419,0.706,2.022,1.081c1.904,1.182,24.717,17.095,27.653,20.069
	c0.813,0.82,1.648,1.62,2.492,2.411c0.456-4.639,1.053-10.766,1.417-14.846l-3.231-1.998c-0.023-0.015-0.04-0.035-0.057-0.054
	c-0.521-0.227-1.028-0.504-1.646-0.347c-0.105,0.03-0.259-0.057-0.375-0.117c-0.03-0.017-0.063-0.034-0.094-0.053
	c-0.633,0.364-1.435,0.388-2.098-0.022l-4.838-2.991c-0.82-0.507-1.149-1.491-0.868-2.363l-1.242-0.771
	c-0.072-0.041-0.145-0.084-0.218-0.125c-0.084-0.05-0.34-0.21-0.697-0.438l-2.514-1.557c-0.656,0.643-1.684,0.786-2.5,0.282
	l-4.838-2.993c-0.964-0.596-1.26-1.859-0.664-2.821c0.593-0.962,1.856-1.262,2.819-0.664l4.838,2.99
	c0.929,0.572,1.23,1.769,0.715,2.714l4.571,2.833c0.622-0.884,1.823-1.148,2.752-0.572l4.837,2.992
	c0.884,0.547,1.199,1.654,0.784,2.575c0.41,0.305,0.812,0.607,1.21,0.922l3.199-5.18c-0.221-0.999-0.493-1.95-0.778-2.546
	c-0.04-0.083-0.075-0.168-0.102-0.255c-0.624-0.113-1.006-0.188-1.086-0.203c-0.055-0.011-0.11-0.025-0.165-0.04
	c-0.536-0.149-1.125-0.297-1.728-0.447c-3.56-0.894-6.637-1.665-7.24-4.067c-0.136-0.544-0.124-1.125,0.028-1.857
	C460.183,395.409,455.458,392.769,454.477,392.315z"/>
<path fill="#ECD100" d="M465.092,346.44c1.214,0.507,8.7,3.253,10.314,10.083c0,0-1.585-4.434-7.158-6.99
	c2.833,5.346,4.29,23.081,4.444,29.811c0.167,7.375-6.156,18.078-5.656,20.074c0.355,1.414,4.619,2.16,7.44,2.947
	c0,0,11.942,2.334,19.224,2.021c0,0-8.171,1.252-16.491-0.36c0.832,1.744,1.472,5.279,1.472,6.975c0,1.93-2.164,23.353-2.498,26.847
	c-0.329,3.495,3.828,19.131,4.326,25.287c0.499,6.154,0.167,21.126,0.869,23.455c0.704,2.331,1.458,2.162,4.29,5.323
	c2.828,3.162,4.824,13.477,1.827,16.635c-2.992,3.162-9.315,15.306-4.156,19.464c5.157,4.16,12.473-5.321,13.306-7.816
	c0.833-2.498,2.664-7.653,3.995-6.656c4.158,8.316,10.48,19.297,15.805,14.641c5.323-4.659,0.998-13.31-2.827-17.968
	c-3.828-4.658-2.995-9.813-2.164-14.306c0.832-4.49,2.825-7.653,5.16-9.816c2.325-2.162,3.159-20.129,3.159-25.12
	s0.832-11.311,3.396-19.297c1.63-5.083,0.751-11.508-0.06-16.326c-0.188-1.125-0.368-2.154-0.518-3.064
	c0.005-0.029,0.014-0.059,0.016-0.087c0.028-0.208,0.093-0.354,0.326-0.389c0.413-0.061,0.539-0.349,0.574-0.725
	c0.041-0.468,0.041-0.94,0.192-1.393c0.141-0.633,0.279-1.267,0.42-1.898c0.425-0.637,0.5-1.408,0.802-2.096
	c0.408-0.933,0.682-1.916,0.849-2.932c0.127-0.769,0.535-1.446,0.902-2.125c0.409-0.854,0.444-1.764,0.419-2.686
	c0.089-1.034,0.181-2.067,0.27-3.099c0.13-1.665,0.489-3.296,0.753-4.938c0.106-0.654,0.365-1.281,0.673-1.867
	c0.544-1.042,0.758-2.127,0.617-3.295c-0.005-0.03-0.003-0.063-0.005-0.096c0.385-0.056,0.777-0.144,1.186-0.294
	c0.353-0.131,0.66-0.285,0.947-0.452c1.634-0.944,2.265-2.467,2.877-4.698c0.101-0.373,1.779-8.717,1.72-9.78
	c-0.062-1.064,0.438-3.299,0.69-5.839c0.242-2.419-0.109-4.918-0.102-7.348c0.008-2.373,0.124-4.75,0.125-7.125
	c0-0.864-0.015-1.731-0.057-2.594c-0.205-4.271-0.459-8.535-1.266-12.782c-1.216-6.379-3.394-9.975-3.764-10.555
	c-1.397-1.155-6.134-4.709-12.982-5.888c-2.08-0.084-5.825-2.329-6.655-4.658c-0.832-2.329-3.247-2.163-4.241-2.329
	c-0.997-0.167-0.582-1.666-0.416-2.911c0.164-1.25,1.665-1.334,2.402-2.249c0.741-0.913,0.26-1.745,0.841-3.326
	c0.582-1.579-0.831-2.995-1.745-2.829c-0.165-1.163,0-6.349,0-6.349s1.605-2.052,1.107-3.994c-0.5-1.94-2.441-7.096-10.425-7.096
	c-7.986,0-12.201,4.27-12.865,5.653c-0.666,1.387,1.312,5.755,1.365,6.226c0.056,0.471-0.998,0.555-2.216,0.5
	c-4.827-0.444-11.147,3.769-12.974,5.101c-1.832,1.33-2.828,0.833-3.994,1.166c-1.164,0.331-6.156,4.655-7.985,5.321
	s-9.893,4.464-13.068,6.529c-3.058,1.991-11.477,9.483-8.424,14.053C442.165,340.135,458.858,343.71,465.092,346.44z
	 M521.89,412.258c-0.013-0.231-0.027-0.467-0.041-0.706c0.059,0.049,0.116,0.1,0.189,0.141
	C521.989,411.881,521.938,412.07,521.89,412.258z M521.678,406.137c-0.027,0.27-0.063,0.539-0.102,0.807
	c-0.038-0.657-0.076-1.309-0.111-1.949C521.705,405.33,521.726,405.729,521.678,406.137z M524.378,344.866
	c-0.053,0.018-0.104,0.045-0.155,0.072C524.318,344.888,524.378,344.866,524.378,344.866z M521.033,354.246
	c0.16-7.013,2.397-8.854,3.119-9.267c-0.947,0.603-1.498,2.866-1.717,3.65c-1.281,4.612-0.939,9.632-0.763,14.356
	c0.105,2.812,0.362,5.617,0.409,8.429c0.008,0.459,0.023,0.918,0.018,1.376c-0.057,4.188-0.627,8.388-0.503,12.573
	c0.055,1.811,0.019,3.829,0.544,5.577c0.229,0.767,0.498,1.469,0.92,2.026c-0.006,0.084-0.001,0.17-0.012,0.253
	c-0.124,0.994-0.27,1.991-0.401,2.983c-0.067,0.5-0.288,1.016-0.446,1.494c-0.188,0.579-0.674,0.926-1.045,1.363
	c-0.061-1.415-0.086-2.392-0.053-2.639c0.204-1.517,0.005-2.879-0.183-3.976c-0.119-0.708-0.234-1.305-0.234-1.763
	c0-0.134,0.014-0.443,0.04-0.881c0.194-3.348,0.917-28.085,0.078-33.932c-0.069-0.474-0.112-0.826-0.142-1.083
	c-0.398-2.817-1.801-4.081-1.801-4.081C520.227,351.316,520.617,352.46,521.033,354.246z M499.444,479.499
	c0.41-2.271,1.344-6.28,2.961-7.383c0,0-2.355,2.873-2.602,10.53c-0.031,0.913,0.12,1.862,0.146,2.779
	c0.022,0.746-0.107,1.544,0.211,2.241c0.238,0.52,0.681,0.897,0.967,1.383c0.31,0.517,0.389,1.081,0.454,1.671
	c0.162,1.498,0.141,3.015,0.141,4.518c0,8.734-1.913,9.982-1.913,9.982s-1.914-1.248-1.914-9.982c0-1.29-0.152-2.58-0.047-3.871
	c0.075-0.929,0.571-1.729,0.932-2.568c0.391-0.909,0.499-1.816,0.494-2.804c-0.005-1.102,0.019-2.205,0-3.303
	c-0.047-2.501-0.359-5.08-1.075-7.48c-0.376-1.262-0.917-2.519-1.69-3.596C496.51,471.616,498.466,473.175,499.444,479.499z
	 M471.115,319.61c1.745,0.335,3.589,0.702,6.147-0.386c2.681-1.141,3.333-2.405,5.165-2.736c1.828-0.333,4.352-0.748,4.242-2.023
	c-0.113-1.274-2.662-1.274-2.662-1.274c1.053-0.169,3.715-1.996,3.715-1.996s0.884,0.554,0.61,2.383
	c-0.278,1.83,1.722,3.049,2.771,4.158c1.055,1.109-0.328,2.331,0.666,3.273c0.999,0.943,0.446,1.109-1.498,2.44
	c-1.109,0.762-1.859,0.877-2.724,0.741h0.006c-8.157-1.726-14.782,0.856-14.782,0.856c7.629-3.41,14.782-0.856,14.782-0.856
	s0.173-1.013-2.073-1.481c-2.246-0.465-9.583-0.231-11.492,0.257c-1.857,0.475-1.248,1.574-0.645,1.845
	c-1.135,0.521-2.477,0.672-4.09,1.133c-1.799,0.515-3.954,1.458-4.845,1.859c-3.287,1.896-5.23,4.93-5.23,4.93
	c0.605-1.208,1.409-2.215,2.242-3.039c-2.514,1.087-5.605,0.718-5.605,0.718C465.181,326.733,471.115,319.61,471.115,319.61z"/>
</svg>
