<?xml version="1.0" encoding="UTF-8" standalone="no"?>
<!-- Generator: Adobe Illustrator 16.0.0, SVG Export Plug-In . SVG Version: 6.00 Build 0)  -->

<svg xmlns="http://www.w3.org/2000/svg" version="1.1" id="Layer_1" x="0px" y="0px" width="438.58459" height="416.87265" viewBox="0 0 438.58459 416.87265" enable-background="new 0 0 1000 1000" xml:space="preserve">
  <defs id="defs4027" />
  <path d="m 161.24422,309.568 c -3.085,-14.246 -19.964,-29.683 -31.508,-37.8 -0.696,5.722 2.008,26.087 19.146,34.549 -16.783,-2.155 -38.79,6.57 -42.617,9.044 19.279,8.334 44.647,7.681 54.979,-5.793 z" id="path3872" style="fill:#ecd100" />
  <path d="m 132.06322,300.273 c -0.446,-13.555 -13.874,-31.916 -22.94,-41.104 -1.779,5.794 -3.051,25.034 12.53,36.306 -17.217,-5.707 -38.845003,-0.964 -42.666003,0.499 17.051,11.946 41.355003,15.062 53.076003,4.299 z" id="path3874" style="fill:#ecd100" />
  <path d="m 104.45322,285.35 c 2.221,-12.789 -6.897003,-33.284 -13.471003,-43.082 -5.195,9.763 -5.249,26.185 5.264,37.066 -16.132,-9.203 -36.444,-9.034 -40.776,-8.417 14.216,15.387 36.583,21.961 48.983003,14.433 z" id="path3876" style="fill:#ecd100" />
  <path d="m 80.831217,265.284 c 4.583,-11.128 0.603,-32.297 -4.292,-43.274 -4.008,5.225 -11.567,20.945 -1.649,36.601 -13.157,-12 -30.381,-15.857 -36.997,-16.229 11.101,18.216 31.036,27.06 42.938,22.902 z" id="path3878" style="fill:#ecd100" />
  <path d="m 27.673217,210.649 c 6.206,20.671 23.825,32.202 34.759,30.658 6.625,-9.733 5.257,-31.301 3.544,-40.388 -7.409,5.986 -13.396,17.396 -9.783,29.268 -7.328,-9.742 -23.133,-17.735 -28.52,-19.538 z" id="path3880" style="fill:#ecd100" />
  <path d="m 48.917217,213.001 c 6.527,-5.762 13.667,-23.225 13.83,-37.158 -10.509,5.717 -17.618,16.588 -15.725,30.715 -4.484,-11.23 -11.663,-22.013 -24.059,-29.409 1.305,19.5 14.994,34.805 25.954,35.852 z" id="path3882" style="fill:#ecd100" />
  <path d="m 43.227217,183.338 c 7.108,-3.666 17.583,-18.389 19.732,-33.026 -11.13,4.426 -18.93,13.417 -20.066,27.273 -1.844,-11.286 -5.627,-21.87 -17.539,-31.698 -1.675,17.935 8.585,34.329 17.873,37.451 z" id="path3884" style="fill:#ecd100" />
  <path d="m 43.630217,153.099 c 7.076,-2.173 19.372,-14.422 22.997,-28.895 -11.151,3.333 -19.187,10.446 -22.483,24.032 -0.059,-12.78 -3.129,-22.426 -12.491,-32.238 -3.835,17.198 4.74,33.331 11.977,37.101 z" id="path3886" style="fill:#ecd100" />
  <path d="m 48.424217,123.222 c 6.038,-0.934 19.731,-10.486 24.637,-25.052 -11.135,2.426 -18.87,8.143 -23.697,20.989 1.555,-14.091 -1.379,-22.556 -8.516,-31.819 -5.391,16.002 1.664,31.923 7.576,35.882 z" id="path3888" style="fill:#ecd100" />
  <path d="m 193.53522,313.629 c -6.739,-14.414 -25.112,-25.862 -39.412,-32.618 0.312,5.577 7.195,26.188 25.354,31.686 -18.068,1.109 -38.11,14.479 -40.974,17.332 22.908,4.954 48.053,-1.413 55.032,-16.4 z" id="path3890" style="fill:#ecd100" />
  <path d="m 67.690217,66.43 c -11,7.175 -18.821,22.645 -12.194,32.984 11.231,-4.872 13.999,-20.769 12.194,-32.984 z" id="path3892" style="fill:#ecd100" />
  <path d="m 332.31822,315.361 c -3.827,-2.474 -25.835,-11.199 -42.618,-9.044 17.135,-8.462 19.844,-28.827 19.147,-34.549 -11.546,8.117 -28.426,23.554 -31.508,37.8 10.332,13.474 35.699,14.127 54.979,5.793 z" id="path3894" style="fill:#ecd100" />
  <path d="m 316.92922,295.474 c 15.58,-11.271 14.307,-30.512 12.531,-36.306 -9.069,9.188 -22.498,27.55 -22.941,41.104 11.722,10.763 36.025,7.647 53.077,-4.3 -3.825,-1.462 -25.452,-6.205 -42.667,-0.498 z" id="path3896" style="fill:#ecd100" />
  <path d="m 383.11122,270.917 c -4.332,-0.617 -24.644,-0.786 -40.776,8.417 10.515,-10.882 10.46,-27.304 5.264,-37.066 -6.574,9.798 -15.688,30.293 -13.467,43.082 12.396,7.528 34.764,0.954 48.979,-14.433 z" id="path3898" style="fill:#ecd100" />
  <path d="m 400.68922,242.38 c -6.618,0.372 -23.84,4.229 -36.999,16.229 9.92,-15.655 2.359,-31.376 -1.649,-36.601 -4.895,10.978 -8.875,32.146 -4.291,43.274 11.901,4.16 31.839,-4.684 42.939,-22.902 z" id="path3900" style="fill:#ecd100" />
  <path d="m 382.38922,230.187 c 3.612,-11.872 -2.375,-23.282 -9.784,-29.268 -1.71,9.087 -3.084,30.655 3.546,40.388 10.934,1.544 28.554,-9.987 34.76,-30.658 -5.389,1.803 -21.19,9.796 -28.522,19.538 z" id="path3902" style="fill:#ecd100" />
  <path d="m 391.56222,206.557 c 1.89,-14.127 -5.219,-24.998 -15.726,-30.715 0.162,13.933 7.301,31.396 13.833,37.158 10.954,-1.047 24.646,-16.351 25.952,-35.852 -12.399,7.396 -19.575,18.179 -24.059,29.409 z" id="path3904" style="fill:#ecd100" />
  <path d="m 375.62322,150.312 c 2.148,14.637 12.624,29.361 19.733,33.026 9.289,-3.122 19.55,-19.516 17.873,-37.451 -11.914,9.828 -15.697,20.412 -17.54,31.698 -1.135,-13.856 -8.938,-22.848 -20.066,-27.273 z" id="path3906" style="fill:#ecd100" />
  <path d="m 371.95722,124.204 c 3.619,14.473 15.92,26.722 22.998,28.895 7.235,-3.77 15.812,-19.903 11.975,-37.101 -9.362,9.813 -12.432,19.458 -12.491,32.238 -3.297,-13.586 -11.333,-20.699 -22.482,-24.032 z" id="path3908" style="fill:#ecd100" />
  <path d="m 390.15622,123.222 c 5.913,-3.959 12.968,-19.88 7.575,-35.883 -7.137,9.264 -10.068,17.728 -8.513,31.819 -4.829,-12.846 -12.562,-18.563 -23.697,-20.989 4.907,14.567 18.599,24.119 24.635,25.053 z" id="path3910" style="fill:#ecd100" />
  <path d="m 300.07622,330.029 c -2.861,-2.854 -22.904,-16.223 -40.974,-17.332 18.163,-5.498 25.047,-26.108 25.356,-31.686 -14.301,6.756 -32.673,18.204 -39.409,32.618 6.977,14.987 32.123,21.354 55.027,16.4 z" id="path3912" style="fill:#ecd100" />
  <path d="m 383.08822,99.414 c 6.623,-10.339 -1.198,-25.809 -12.195,-32.984 -1.806,12.215 0.963,28.112 12.195,32.984 z" id="path3914" style="fill:#ecd100" />
  <polygon points="494.978,597.35 484.142,598.924 491.984,606.567 490.132,617.36 499.824,612.264 509.518,617.36 507.667,606.567 515.507,598.924 504.671,597.35 499.824,587.53 " id="polygon3916" style="fill:#ecd100" transform="translate(-280.70778,-291.562)" />
  <path d="m 438.30022,292.06 c -0.544,-0.89 -1.74,-1.051 -2.992,-0.435 -11.363,5.617 -23.186,9.902 -35.132,12.887 2.788,-10.482 4.96,-20.701 6.752,-30.626 0.199,-1.087 -0.418,-1.958 -1.524,-2.177 -1.107,-0.208 -2.453,0.274 -3.358,1.188 -17.275,17.657 -36.619,31.768 -57.17,42.778 -1.369,0.735 -1.747,2.275 -0.839,3.469 1.712,2.232 3.424,4.466 5.133,6.692 0.918,1.189 2.829,1.508 4.273,0.69 1.844,-1.053 3.674,-2.127 5.494,-3.225 1.421,-0.852 3.344,-0.659 4.315,0.462 6.726,7.817 13.459,15.634 20.188,23.443 20.416,-14.282 38.763,-31.558 54.232,-51.638 0.919,-1.197 1.173,-2.617 0.628,-3.508 z" id="path3918" style="fill:#ecd100" />
  <path d="m 56.891217,345.182 c 6.146,-7.141 12.292,-14.28 18.443,-21.417 0.966,-1.121 2.894,-1.313 4.313,-0.462 1.818,1.098 3.652,2.172 5.495,3.225 1.445,0.823 3.357,0.505 4.273,-0.69 1.71,-2.227 3.419,-4.46 5.131,-6.692 0.913,-1.191 0.531,-2.739 -0.837,-3.469 -20.549,-11.011 -39.893,-25.121 -57.171,-42.778 -0.903,-0.914 -2.251,-1.396 -3.358,-1.188 -1.105,0.219 -1.724,1.09 -1.528,2.177 1.798,9.925 3.971,20.144 6.754,30.626 -11.946,-2.984 -23.768,-7.27 -35.1280005,-12.887 -1.252,-0.616 -2.452,-0.455 -2.996,0.435 -0.54,0.891 -0.292,2.311 0.632,3.511 14.7560005,19.156 32.1280005,35.754 51.4130005,49.646 1.551,1.111 3.596,1.084 4.564,-0.037 z" id="path3920" style="fill:#ecd100" />
  <path d="m 111.44822,350.735 c -1.25,-0.51 -2.416,-0.504 -3.516,0.018 -1.1,0.519 -2.146,1.651 -3.133,3.404 -0.988,1.751 -2.653,5.285 -4.989003,10.604 -2.313,5.271 -3.758,8.79 -4.332,10.567 -0.575,1.776 -0.712,3.333 -0.401,4.661 0.312,1.328 1.279,2.333 2.898,2.992 1.342,0.547 2.608003,0.572 3.788003,0.086 1.18,-0.488 2.242,-1.627 3.193,-3.402 0.951,-1.772 2.504,-5.387 4.67,-10.835 2.123,-5.347 3.442,-8.902 3.959,-10.664 0.517,-1.764 0.653,-3.295 0.422,-4.592 -0.23,-1.295 -1.081,-2.238 -2.559,-2.839 z" id="path3922" style="fill:#ecd100" />
  <path d="m 294.26722,380.298 c -1.431,-5.568 -2.455,-9.215 -3.072,-10.943 -0.619,-1.73 -1.404,-3.059 -2.35,-3.979 -0.946,-0.921 -2.183,-1.2 -3.72,-0.841 -1.301,0.303 -2.231,0.977 -2.807,2.031 -0.576,1.053 -0.748,2.573 -0.514,4.564 0.233,1.992 0.97,5.823 2.213,11.49 1.234,5.614 2.136,9.303 2.715,11.08 0.581,1.775 1.38,3.114 2.405,4.018 1.024,0.9 2.385,1.165 4.069,0.773 1.397,-0.323 2.43,-1.027 3.093,-2.104 0.659,-1.072 0.85,-2.608 0.57,-4.595 -0.273,-1.986 -1.148,-5.819 -2.602,-11.494 z" id="path3924" style="fill:#ecd100" />
  <path d="m 362.27322,330.082 c -0.945,-1.145 -2.882,-1.369 -4.341,-0.521 -84.571,49.253 -195.044,48.725 -279.027003,-1.678 -9.505,11.553 -19.013,23.099 -28.516,34.657 -0.95,1.145 -0.363,3.025 1.321,4.18 96.523003,66.815 239.424003,66.874 336.015003,0.154 1.688,-1.149 2.274,-3.035 1.322,-4.181 -8.921,-10.871 -17.847,-21.741 -26.774,-32.611 z M 80.235217,367.113 c -1.292,1.508 -3.164,2.662 -5.636,3.42 -2.47,0.757 -4.965,0.479 -7.425,-0.838 -2.042,-1.09 -3.332,-2.467 -3.858,-4.096 -0.525,-1.629 -0.413,-3.078 0.317,-4.343 0.523,-0.904 1.284,-1.573 2.277,-2.002 0.995,-0.429 1.958,-0.385 2.899,0.131 0.826,0.453 1.355,1.146 1.594,2.084 0.24,0.936 0.095,1.894 -0.445,2.876 -0.476,0.869 -2.057,1.564 -2.842,2.294 -0.275,0.253 0.097,0.977 1.083,1.504 1.582,0.846 2.971,0.147 4.164,-2.076 6.744,-12.575 7.464,-13.751 14.208,-26.328 -1.42,-0.743 -2.127,-1.121 -3.539,-1.888 0.354,-0.636 0.532,-0.954 0.887,-1.594 5.28,2.861 7.948,4.218 13.34,6.78 -0.318,0.655 -0.478,0.985 -0.795,1.639 -1.36,-0.646 -2.038,-0.977 -3.391,-1.641 -4.389,8.717 -3.933,7.962 -8.321,16.68 -1.724,3.42 -3.225,5.889 -4.517,7.398 z m 28.792003,16.482 c -3.871,2.3 -7.793,2.678 -11.615003,1.119 -4.128,-1.682 -6.736,-4.848 -7.707,-9.355 -0.971,-4.505 -0.196,-9.254 2.174,-14.255 2.409,-5.081 5.629,-8.652 9.537003,-10.825 3.906,-2.173 7.467,-2.587 10.825,-1.218 3.116,1.27 5.277,3.907 6.614,7.988 1.335,4.082 1.018,9.031 -1.103,14.857 -1.986,5.456 -4.854,9.386 -8.725,11.689 z m 20.83,11.849 c -6.49,-1.874 -9.717,-2.898 -16.125,-5.117 0.244,-0.688 0.366,-1.032 0.609,-1.72 1.632,0.568 2.453,0.843 4.093,1.388 4.363,-12.844 6.543,-19.267 10.907,-32.112 -1.465,-0.484 -2.194,-0.734 -3.653,-1.24 0.244,-0.686 0.366,-1.025 0.61,-1.713 5.649,1.956 8.494,2.859 14.218,4.515 -0.206,0.696 -0.311,1.046 -0.517,1.745 -1.529,-0.441 -2.291,-0.667 -3.814,-1.132 -4.033,12.949 -6.049,19.42 -10.083,32.371 1.706,0.521 2.561,0.773 4.273,1.271 -0.209,0.695 -0.31,1.048 -0.518,1.744 z m 38.453,-27.607 c -0.403,-0.073 -0.603,-0.114 -1.004,-0.188 -1.085,-0.201 -1.801,-0.122 -2.155,0.247 -0.355,0.37 -0.659,1.186 -0.91,2.446 -2.582,12.942 -3.876,19.406 -6.461,32.35 -0.694,-0.136 -1.042,-0.199 -1.735,-0.34 -4.99,-14.456 -7.068,-21.733 -10.4,-36.265 -2.83,10.474 -4.246,15.708 -7.077,26.182 -0.396,1.459 -0.517,2.433 -0.361,2.918 0.155,0.485 0.842,0.885 2.057,1.194 0.739,0.188 1.109,0.283 1.85,0.464 -0.18,0.706 -0.271,1.061 -0.451,1.766 -4.054,-1.006 -6.073,-1.543 -10.099,-2.683 0.202,-0.699 0.304,-1.051 0.507,-1.749 0.5,0.141 0.747,0.213 1.249,0.354 1.271,0.352 2.103,0.316 2.488,-0.104 0.386,-0.417 0.868,-1.669 1.445,-3.759 2.759,-9.993 4.138,-14.987 6.897,-24.98 0.377,-1.369 0.511,-2.258 0.407,-2.663 -0.108,-0.407 -0.653,-0.741 -1.634,-1.016 -0.613,-0.17 -0.921,-0.256 -1.534,-0.43 0.202,-0.698 0.304,-1.047 0.506,-1.746 4.23,1.2 6.358,1.758 10.622,2.792 2.348,9.646 3.706,14.469 6.792,24.082 1.299,-6.327 1.949,-9.491 3.248,-15.817 0.341,-1.662 0.433,-2.77 0.279,-3.325 -0.152,-0.551 -0.774,-0.938 -1.868,-1.167 -0.537,-0.113 -0.805,-0.171 -1.342,-0.286 0.156,-0.71 0.233,-1.066 0.39,-1.778 3.443,0.736 5.169,1.083 8.629,1.714 -0.136,0.712 -0.202,1.073 -0.335,1.787 z m 27.591,4.147 c -0.272,0.303 -0.473,1.183 -0.598,2.631 -0.673,7.735 -1.009,11.605 -1.682,19.342 -0.215,2.453 -0.604,4.583 -1.173,6.396 -0.57,1.813 -1.795,3.373 -3.706,4.648 -1.91,1.276 -4.735,1.722 -8.429,1.27 -1.944,-0.239 -3.799,-0.744 -5.558,-1.509 -1.758,-0.767 -3.114,-1.888 -4.058,-3.358 -0.945,-1.466 -1.442,-2.903 -1.51,-4.303 -0.067,-1.398 0.053,-3.005 0.354,-4.806 1.579,-9.426 2.371,-14.138 3.95,-23.563 -1.511,-0.245 -2.263,-0.375 -3.771,-0.644 0.13,-0.717 0.195,-1.075 0.324,-1.791 5.854,1.036 8.788,1.478 14.674,2.207 -0.09,0.722 -0.135,1.086 -0.228,1.808 -1.584,-0.195 -2.375,-0.299 -3.958,-0.518 -1.358,9.595 -2.038,14.389 -3.396,23.985 -0.543,3.839 -0.308,6.496 0.729,7.96 1.038,1.463 2.613,2.331 4.705,2.577 1.578,0.181 3.044,-0.012 4.386,-0.565 1.339,-0.556 2.439,-1.491 3.287,-2.812 0.85,-1.313 1.42,-3.638 1.727,-6.961 0.729,-7.889 1.097,-11.831 1.825,-19.719 0.12,-1.28 0.129,-2.095 0.031,-2.44 -0.099,-0.346 -0.697,-0.568 -1.79,-0.677 -0.795,-0.076 -1.191,-0.112 -1.984,-0.197 0.078,-0.722 0.115,-1.087 0.192,-1.809 3.669,0.383 5.508,0.54 9.184,0.806 -0.053,0.726 -0.08,1.09 -0.134,1.814 -0.544,-0.04 -0.817,-0.061 -1.362,-0.101 -1.079,-0.081 -1.757,0.024 -2.031,0.329 z m 30.803,0.438 c -1.1,0.026 -1.78,0.249 -2.046,0.683 -0.27,0.434 -0.396,1.297 -0.379,2.583 0.202,13.189 0.303,19.781 0.502,32.972 -0.706,0.012 -1.062,0.014 -1.765,0.019 -7.89,-13.117 -11.431,-19.809 -17.701,-33.331 -0.558,10.826 -0.838,16.241 -1.398,27.064 -0.079,1.508 0.007,2.486 0.26,2.93 0.251,0.442 1.003,0.689 2.247,0.74 0.757,0.033 1.135,0.05 1.893,0.075 -0.028,0.728 -0.042,1.093 -0.069,1.82 -4.147,-0.147 -6.216,-0.256 -10.359,-0.537 0.05,-0.728 0.074,-1.091 0.125,-1.815 0.514,0.035 0.769,0.05 1.283,0.082 1.309,0.085 2.107,-0.124 2.395,-0.614 0.286,-0.488 0.494,-1.811 0.617,-3.971 0.591,-10.343 0.886,-15.515 1.476,-25.856 0.08,-1.417 0.025,-2.31 -0.163,-2.686 -0.188,-0.375 -0.788,-0.589 -1.798,-0.651 -0.631,-0.04 -0.945,-0.059 -1.577,-0.103 0.05,-0.726 0.076,-1.089 0.125,-1.813 4.353,0.297 6.532,0.405 10.893,0.537 4.299,8.951 6.63,13.389 11.65,22.16 -0.063,-6.457 -0.096,-9.688 -0.159,-16.143 -0.017,-1.694 -0.156,-2.797 -0.421,-3.307 -0.264,-0.512 -0.953,-0.76 -2.065,-0.759 -0.545,0 -0.82,0 -1.366,-0.003 0.002,-0.728 0.007,-1.092 0.012,-1.818 3.504,0.013 5.254,-0.007 8.757,-0.101 0.019,0.727 0.025,1.09 0.044,1.817 -0.406,0.012 -0.607,0.02 -1.013,0.026 z m 3.707,35.6 c -0.023,-0.728 -0.039,-1.089 -0.064,-1.815 1.709,-0.054 2.562,-0.087 4.27,-0.167 -0.626,-13.533 -0.94,-20.301 -1.57,-33.835 -1.523,0.07 -2.285,0.101 -3.81,0.149 -0.026,-0.727 -0.035,-1.092 -0.059,-1.82 5.901,-0.19 8.854,-0.36 14.743,-0.854 0.063,0.725 0.09,1.092 0.153,1.816 -1.571,0.131 -2.36,0.189 -3.934,0.303 0.971,13.513 1.454,20.268 2.425,33.783 1.764,-0.124 2.645,-0.19 4.406,-0.34 0.063,0.725 0.094,1.088 0.158,1.813 -6.678,0.561 -10.024,0.751 -16.718,0.967 z m 40.056,-30.195 c -2.146,-6.146 -5.209,-8.863 -9.304,-8.272 -1.816,0.262 -2.723,0.38 -4.541,0.612 0.822,6.268 1.233,9.402 2.057,15.671 0.289,-0.037 0.439,-0.059 0.73,-0.096 3.529,-0.461 5.13,-2.943 4.8,-7.363 0.656,-0.1 0.984,-0.147 1.642,-0.252 0.972,6.103 1.461,9.151 2.436,15.254 -0.606,0.094 -0.906,0.138 -1.513,0.229 -0.401,-1.863 -1.153,-3.41 -2.237,-4.647 -1.085,-1.234 -2.709,-1.701 -4.887,-1.417 -0.294,0.039 -0.441,0.06 -0.732,0.096 0.846,6.447 1.269,9.672 2.116,16.117 1.852,-0.237 2.773,-0.364 4.622,-0.629 0.107,0.72 0.163,1.083 0.268,1.804 -6.681,0.952 -10.036,1.344 -16.751,1.946 -0.065,-0.725 -0.101,-1.093 -0.168,-1.817 1.646,-0.148 2.467,-0.223 4.111,-0.392 -1.422,-13.477 -2.134,-20.212 -3.56,-33.688 -1.467,0.151 -2.196,0.223 -3.666,0.355 -0.065,-0.725 -0.104,-1.088 -0.168,-1.813 9.645,-0.87 14.457,-1.505 24.018,-3.19 0.909,4.486 1.359,6.729 2.276,11.219 -0.62,0.108 -0.929,0.164 -1.549,0.273 z m 31.982,14.826 c -1.769,4.095 -4.704,6.649 -8.68,7.573 -4.294,0.999 -8.219,-0.08 -11.623,-3.189 -3.404,-3.11 -5.556,-7.417 -6.582,-12.843 -1.046,-5.519 -0.57,-10.271 1.277,-14.279 1.843,-4.005 4.446,-6.378 7.939,-7.191 3.241,-0.753 6.523,0.152 9.994,2.701 3.479,2.554 6.136,6.757 7.85,12.714 1.606,5.573 1.594,10.421 -0.175,14.514 z m 34.474,-6.053 c -2.406,0.929 -4.608,0.965 -6.564,0.126 -1.956,-0.837 -3.629,-3.046 -5.033,-6.611 -1.409,-3.56 -2.659,-5.761 -3.741,-6.608 -1.081,-0.847 -2.53,-0.955 -4.361,-0.338 -0.634,0.214 -0.952,0.316 -1.588,0.525 2.221,6.568 3.332,9.857 5.554,16.426 1.632,-0.541 2.45,-0.813 4.073,-1.374 0.244,0.688 0.363,1.032 0.605,1.717 -6.276,2.167 -9.44,3.166 -15.798,5.003 -0.209,-0.697 -0.31,-1.054 -0.517,-1.75 1.6,-0.462 2.397,-0.696 3.989,-1.18 -4.02,-12.953 -6.024,-19.431 -10.042,-32.386 -1.424,0.432 -2.139,0.643 -3.563,1.056 -0.209,-0.699 -0.308,-1.049 -0.516,-1.748 5.609,-1.615 8.394,-2.497 13.929,-4.408 4.435,-1.529 7.756,-1.809 10.054,-0.706 2.296,1.102 3.862,2.612 4.653,4.57 0.84,2.081 0.797,4.156 -0.167,6.228 -0.959,2.072 -2.927,3.938 -5.898,5.527 0.017,0.045 0.023,0.066 0.04,0.107 2.634,-0.124 4.766,0.156 6.396,0.887 1.63,0.732 2.888,1.743 3.753,3.047 0.867,1.307 1.705,2.938 2.509,4.901 0.805,1.961 1.436,3.126 1.891,3.488 0.452,0.362 1.036,0.405 1.757,0.12 0.792,-0.313 1.541,-0.941 2.228,-1.886 0.328,0.787 0.485,1.184 0.814,1.969 -1.132,1.485 -2.621,2.589 -4.457,3.298 z m 27.194,-12.15 c -0.333,-0.648 -0.497,-0.977 -0.83,-1.626 1.568,-0.777 2.354,-1.173 3.914,-1.975 -5.948,-11.307 -8.919,-16.961 -14.868,-28.27 3.189,13.544 4.592,20.387 7.007,34.191 -0.415,0.198 -0.624,0.298 -1.039,0.495 -9.497,-10.634 -14.068,-16.077 -22.832,-27.163 4.639,10.413 6.96,15.619 11.602,26.032 0.641,1.436 1.215,2.306 1.735,2.622 0.519,0.312 1.499,0.157 2.932,-0.484 0.425,-0.188 0.638,-0.287 1.061,-0.479 0.305,0.661 0.459,0.997 0.767,1.659 -4.069,1.838 -6.114,2.72 -10.23,4.411 -0.281,-0.669 -0.424,-1.01 -0.708,-1.68 0.751,-0.308 1.123,-0.463 1.872,-0.774 1.184,-0.497 1.806,-1.029 1.866,-1.581 0.062,-0.558 -0.204,-1.508 -0.795,-2.86 -4.866,-11.087 -7.299,-16.631 -12.165,-27.715 -1.573,0.676 -2.366,1.009 -3.949,1.658 -0.281,-0.671 -0.422,-1.008 -0.706,-1.679 4.545,-1.869 6.804,-2.854 11.283,-4.926 5.723,6.938 8.656,10.364 14.677,17.112 -1.715,-8.843 -2.65,-13.237 -4.69,-21.972 4.144,-2.115 6.198,-3.217 10.273,-5.514 0.363,0.631 0.546,0.949 0.91,1.58 -1.34,0.754 -2.008,1.127 -3.354,1.861 6.633,11.857 9.946,17.788 16.579,29.646 1.511,-0.823 2.261,-1.24 3.765,-2.087 0.363,0.633 0.548,0.951 0.909,1.582 -5.931,3.344 -8.93,4.931 -14.986,7.936 z" id="path3926" style="fill:#ecd100" />
  <path d="m 317.24822,356.946 c -0.952,-0.553 -2.247,-0.539 -3.894,0.027 -1.21,0.413 -1.819,0.618 -3.034,1.02 1.89,5.593 2.842,8.387 4.732,13.979 1.114,-0.365 1.668,-0.556 2.774,-0.934 1.923,-0.654 3.099,-1.552 3.525,-2.666 0.424,-1.114 0.067,-3.189 -1.054,-6.225 -1.074,-2.912 -2.095,-4.645 -3.049,-5.201 z" id="path3928" style="fill:#ecd100" />
  <path d="m 256.90422,253.98 c 2.561,-1.792 5.06,-3.666 7.285,-5.87 4.423,-4.379 7.55,-9.581 9.705,-15.388 0.168,-0.445 0.327,-0.894 0.49,-1.337 0.22,0.223 0.3,0.425 0.34,0.636 0.396,2.108 0.772,4.219 1.18,6.325 0.08,0.417 0,1.021 0.573,1.116 0.564,0.093 0.707,-0.495 0.931,-0.863 1.227,-2.023 1.991,-4.235 2.51,-6.526 1.453,-6.403 1.612,-12.89 1.197,-19.41 -0.049,-0.767 -0.334,-0.988 -1.093,-0.773 -1.471,0.408 -2.961,0.785 -4.371,1.354 -6.55,2.636 -11.713,7.041 -15.901,12.652 -0.1,0.131 -0.199,0.263 -0.271,0.408 -0.251,0.499 -0.046,0.816 0.522,0.816 0.16,0 0.321,-0.04 0.481,-0.073 2.634,-0.574 5.266,-1.146 7.903,-1.723 0.267,-0.06 0.537,-0.113 0.935,-0.198 -0.136,0.319 -0.194,0.5 -0.286,0.664 -1.669,3.065 -3.573,5.974 -5.859,8.616 -2.644,3.056 -5.658,5.657 -9.336,7.404 -3.746,1.777 -7.65,2.499 -11.761,1.597 -2.911,-0.638 -5.176,-1.953 -6.736,-3.984 -0.736,0.314 -1.506,0.48 -2.304,0.48 -5.169,0 -9.759,-6.822 -13.665,-14.245 -0.361,0.826 -0.816,1.999 -1.371,3.663 -0.885,2.658 -6.559,10.346 -12.496,10.346 -0.76,0 -1.487,-0.127 -2.181,-0.367 -0.89,1.207 -2.035,2.206 -3.504,2.936 -3.147,1.562 -6.462,1.883 -9.888,1.269 -3.91,-0.7 -7.296,-2.503 -10.335,-4.997 -4.348,-3.568 -7.533,-8.055 -10.174,-12.966 -0.047,-0.093 -0.04,-0.22 -0.07,-0.413 0.34,0.078 0.584,0.137 0.833,0.19 2.599,0.57 5.202,1.144 7.805,1.703 0.398,0.087 0.886,0.312 1.155,-0.164 0.262,-0.465 -0.185,-0.784 -0.421,-1.103 -2.57,-3.487 -5.626,-6.476 -9.184,-8.951 -3.314,-2.309 -6.912,-4.007 -10.868,-4.895 -0.907,-0.205 -1.154,-0.038 -1.212,0.839 -0.382,5.83 -0.243,11.642 0.797,17.401 0.528,2.925 1.337,5.765 2.859,8.354 0.148,0.253 0.289,0.516 0.48,0.733 0.374,0.423 0.728,0.332 0.932,-0.211 0.047,-0.119 0.08,-0.249 0.103,-0.375 0.344,-1.789 0.685,-3.574 1.025,-5.366 0.116,-0.624 0.221,-1.252 0.331,-1.88 0.068,-0.004 0.136,-0.013 0.207,-0.018 0.15,0.41 0.311,0.816 0.459,1.227 2.824,7.702 7.346,14.154 13.938,19.117 4.273,3.213 8.78,6.057 13.34,8.82 4.062,2.462 8.136,4.901 12.172,7.401 1.072,0.665 2.12,1.421 3.016,2.3 2.886,2.824 5.595,5.819 7.987,9.075 0.943,1.28 1.798,2.631 2.583,4.014 0.409,0.719 0.614,1.564 0.839,2.371 0.176,0.616 0.266,0.749 0.804,0.747 0.507,0 0.619,-0.301 0.723,-0.732 0.176,-0.721 0.349,-1.473 0.702,-2.11 0.721,-1.309 1.495,-2.593 2.363,-3.809 2.12,-2.972 4.587,-5.652 7.079,-8.314 1.319,-1.414 2.785,-2.636 4.424,-3.652 2.212,-1.37 4.423,-2.74 6.654,-4.076 5.277,-3.158 10.583,-6.261 15.625,-9.785 z" id="path3930" style="fill:#ecd100" />
  <path d="m 192.51722,141.848 c -0.6,-0.556 -1.18,-1.102 -1.747,-1.645 -0.228,0.335 -0.469,0.687 -0.725,1.056 l 0.306,1.922 c 0.282,-0.175 0.562,-0.351 0.843,-0.524 0.44,-0.272 0.882,-0.538 1.323,-0.809 z" id="path3932" style="fill:#ecd100" />
  <path d="m 188.88922,144.09 -0.152,-0.955 c -0.427,0.602 -0.879,1.236 -1.35,1.89 0.501,-0.314 1,-0.623 1.502,-0.935 z" id="path3934" style="fill:#ecd100" />
  <path d="m 161.87922,165.611 c 0.496,0.344 1.064,0.496 1.689,0.496 0.242,-0.469 0.55,-0.968 0.975,-1.449 0.009,-0.073 0.047,-0.356 0.047,-0.356 0.242,-1.834 0.543,-4.116 2.067,-6.051 0.775,-0.975 1.735,-1.801 3.022,-2.599 0.598,-0.368 1.211,-0.698 1.802,-1.013 l 0.735,-0.396 c 1.867,-1.03 3.772,-2.146 5.824,-3.413 l 1.676,-1.036 c 1.332,-0.822 2.66,-1.652 3.989,-2.481 1.039,-1.384 2.017,-2.723 2.906,-3.962 l -5.729,1.324 -1.168,-3.596 c -5.012,5.882 -11.714,13.315 -17.662,18.469 -1.261,2.893 -1.522,5.128 -0.173,6.063 z" id="path3936" style="fill:#ecd100" />
  <path d="m 189.10022,138.567 c -0.598,-0.607 -2.218,-1.885 -4.379,-3.506 -1.029,1.269 -2.323,2.84 -3.802,4.595 l 1.023,3.149 6.052,-1.404 c 0.604,-0.859 1.146,-1.641 1.617,-2.33 -0.171,-0.168 -0.34,-0.333 -0.511,-0.504 z" id="path3938" style="fill:#ecd100" />
  <path d="m 171.50822,138.231 1.389,3.009 5.725,-1.379 c 1.857,-2.175 3.455,-4.093 4.618,-5.511 l -5.873,-2.221 c -1.337,1.425 -3.38,3.579 -5.859,6.102 z" id="path3940" style="fill:#ecd100" />
  <path d="m 150.33122,163.794 c 4.188,2.504 17.562,-11.581 26.512,-21.876 l -4.842,1.168 -1.683,-3.654 c -5.622,5.664 -13.1,12.803 -19.896,17.99 -1.538,2.998 -1.829,5.334 -0.091,6.372 z" id="path3942" style="fill:#ecd100" />
  <path d="m 162.40522,135.037 0.477,4.112 5.691,-0.248 c 3.043,-3.044 5.576,-5.685 7.181,-7.385 l -6.423,-2.431 c -1.371,1.201 -3.822,3.328 -6.926,5.952 z" id="path3944" style="fill:#ecd100" />
  <path d="m 166.90222,140.56 -5.42,0.237 -0.532,-4.536 c -6.623,5.561 -15.641,12.873 -23.681,18.492 -2.591,3.485 -3.691,6.241 -2.165,7.428 4.687,3.642 20.806,-10.776 31.798,-21.621 z" id="path3946" style="fill:#ecd100" />
  <path d="m 151.70422,137.903 -1.269,-3.868 c -8.458,6.647 -20.333,15.636 -30.293,21.892 -1.182,1.968 -1.632,3.64 -1.067,4.841 2.329,4.927 23.565,-11.45 37.618,-23.052 z" id="path3948" style="fill:#ecd100" />
  <path d="m 151.75922,132.991 1.079,3.285 5.86,-0.223 c 3.967,-3.307 7.184,-6.075 8.945,-7.605 l -6.963,-2.636 c -1.411,1.157 -4.65,3.805 -8.921,7.179 z" id="path3950" style="fill:#ecd100" />
  <path d="m 150.96322,123.59 c -1.059,0.818 -3.892,2.993 -7.793,5.897 l 1.23,3.124 5.927,-0.538 c 4.01,-3.153 7.125,-5.676 8.64,-6.909 l -6.735,-2.552 z" id="path3952" style="fill:#ecd100" />
  <path d="m 101.89622,160.626 c 2.593,5.987 29.897,-14.095 46.131,-26.751 l -4.667,0.421 -1.509,-3.83 c -10.414,7.714 -27.199,19.698 -39.399,26.168 -0.788,1.56 -1.023,2.916 -0.556,3.992 z" id="path3954" style="fill:#ecd100" />
  <path d="m 141.81022,119.77 c -0.462,0.335 -3.07,2.235 -7.019,5.023 l 0.341,3.537 6.318,0.34 c 4.038,-2.979 7.226,-5.389 8.991,-6.734 l -7.618,-2.883 z" id="path3956" style="fill:#ecd100" />
  <path d="m 87.925217,158.365 c 2.544,6.445 33.605003,-15.096 51.512003,-28.216 l -5.753,-0.31 -0.39,-3.994 c -10.961,7.705 -30.24,20.825 -44.647003,28.317 -0.877,1.626 -1.172,3.057 -0.722,4.203 z" id="path3958" style="fill:#ecd100" />
  <path d="m 121.34722,117.802 -1.293,6.235 h 13.028 c 4.02,-2.824 6.904,-4.905 7.948,-5.663 l -10.955,-4.146 c -2.274,0.727 -5.283,1.969 -8.728,3.574 z" id="path3960" style="fill:#ecd100" />
  <path d="m 70.523217,156.899 c 2.969,7.518 41.232003,-17.976 60.292003,-31.276 h -12.712 l 1.443,-6.968 c -19.958003,9.611 -52.266003,30.024 -49.023003,38.244 z" id="path3962" style="fill:#ecd100" />
  <path d="m 159.25722,117.234 c -0.446,-0.515 -0.701,-1.06 -0.861,-1.51 -1.112,-0.704 -2.228,-1.398 -3.342,-2.094 -8.253,-1.518 -16.313,-1.947 -22.5,-0.17 l 46.831,17.685 c -7.29,-5.269 -16.106,-11.396 -17.304,-12.139 -0.012,0 -0.118,-0.039 -0.228,-0.08 -0.377,-0.15 -0.882,-0.349 -1.396,-0.668 -0.461,-0.287 -0.865,-0.631 -1.2,-1.024 z" id="path3964" style="fill:#ecd100" />
  <path d="m 248.53522,141.259 c -0.256,-0.371 -0.497,-0.725 -0.727,-1.061 -0.577,0.552 -1.16,1.104 -1.749,1.649 0.442,0.272 0.886,0.537 1.326,0.81 0.228,0.141 0.52,0.321 0.846,0.524 z" id="path3966" style="fill:#ecd100" />
  <path d="m 249.69622,144.09 c 0.508,0.315 1.023,0.635 1.5,0.932 -0.471,-0.651 -0.925,-1.286 -1.349,-1.887 z" id="path3968" style="fill:#ecd100" />
  <path d="m 257.70222,144.675 -5.732,-1.324 c 0.888,1.239 1.866,2.579 2.906,3.962 1.329,0.829 2.659,1.659 3.989,2.481 l 1.677,1.036 c 2.063,1.273 3.967,2.39 5.822,3.413 0.23,0.126 0.463,0.252 0.696,0.375 0.625,0.333 1.239,0.664 1.834,1.032 1.292,0.8 2.25,1.623 3.022,2.594 1.528,1.937 1.831,4.214 2.074,6.046 0,0 0.039,0.307 0.048,0.369 0.423,0.48 0.731,0.977 0.975,1.448 0.626,0.002 1.194,-0.152 1.69,-0.496 1.349,-0.935 1.088,-3.169 -0.174,-6.063 -5.945,-5.154 -12.648,-12.587 -17.661,-18.469 z" id="path3970" style="fill:#ecd100" />
  <path d="m 249.47822,138.568 c -0.167,0.17 -0.34,0.33 -0.509,0.496 0.47,0.692 1.013,1.475 1.618,2.337 l 6.054,1.404 1.023,-3.149 c -1.478,-1.755 -2.773,-3.329 -3.803,-4.598 -2.162,1.623 -3.784,2.902 -4.383,3.51 z" id="path3972" style="fill:#ecd100" />
  <path d="m 259.96422,139.861 5.724,1.379 1.387,-3.009 c -2.477,-2.524 -4.521,-4.678 -5.858,-6.103 l -5.871,2.221 c 1.162,1.42 2.757,3.337 4.618,5.512 z" id="path3974" style="fill:#ecd100" />
  <path d="m 261.74022,141.918 c 8.952,10.296 22.324,24.38 26.511,21.876 1.738,-1.039 1.447,-3.375 -0.092,-6.372 -6.795,-5.188 -14.271,-12.327 -19.895,-17.99 l -1.681,3.654 z" id="path3976" style="fill:#ecd100" />
  <path d="m 262.83122,131.517 c 1.604,1.701 4.135,4.341 7.181,7.385 l 5.687,0.248 0.479,-4.112 c -3.104,-2.625 -5.554,-4.751 -6.925,-5.951 z" id="path3978" style="fill:#ecd100" />
  <path d="m 277.10222,140.797 -5.42,-0.237 c 10.993,10.845 27.111,25.263 31.795,21.621 1.529,-1.187 0.429,-3.942 -2.165,-7.428 -8.039,-5.619 -17.055,-12.932 -23.68,-18.492 z" id="path3980" style="fill:#ecd100" />
  <path d="m 319.50422,160.767 c 0.567,-1.201 0.117,-2.873 -1.063,-4.841 -9.96,-6.256 -21.834,-15.244 -30.296,-21.892 l -1.268,3.868 -4.987,-0.188 c 14.051,11.603 35.285,27.98 37.614,23.053 z" id="path3982" style="fill:#ecd100" />
  <path d="m 270.93822,128.447 c 1.761,1.53 4.979,4.299 8.947,7.605 l 5.859,0.223 1.078,-3.285 c -4.27,-3.374 -7.509,-6.021 -8.92,-7.18 z" id="path3984" style="fill:#ecd100" />
  <path d="m 286.35422,122.612 -6.736,2.552 c 1.515,1.233 4.631,3.756 8.637,6.909 l 5.929,0.538 1.23,-3.124 c -3.902,-2.904 -6.732,-5.079 -7.794,-5.897 z" id="path3986" style="fill:#ecd100" />
  <path d="m 336.68622,160.626 c 0.467,-1.077 0.234,-2.432 -0.556,-3.992 -12.2,-6.471 -28.985,-18.454 -39.4,-26.168 l -1.506,3.83 -4.667,-0.421 c 16.231,12.656 43.537,32.739 46.129,26.751 z" id="path3988" style="fill:#ecd100" />
  <path d="m 303.45122,128.33 0.342,-3.537 c -3.951,-2.789 -6.558,-4.688 -7.02,-5.023 l -1.013,-0.718 -7.617,2.883 c 1.764,1.345 4.95,3.756 8.989,6.734 z" id="path3990" style="fill:#ecd100" />
  <path d="m 350.65622,158.365 c 0.453,-1.146 0.157,-2.577 -0.725,-4.203 -14.404,-7.492 -33.683,-20.612 -44.646,-28.317 l -0.388,3.994 -5.753,0.31 c 17.91,13.12 48.967,34.661 51.512,28.216 z" id="path3992" style="fill:#ecd100" />
  <path d="m 317.23822,117.802 c -3.447,-1.604 -6.458,-2.847 -8.731,-3.574 l -10.957,4.146 c 1.049,0.757 3.934,2.839 7.953,5.663 h 13.025 z" id="path3994" style="fill:#ecd100" />
  <path d="m 320.47822,125.623 h -12.711 c 19.06,13.3 57.326,38.794 60.295,31.276 3.241,-8.22 -29.065,-28.633 -49.026,-38.244 z" id="path3996" style="fill:#ecd100" />
  <path d="m 283.52622,113.629 c -1.115,0.696 -2.23,1.393 -3.343,2.097 -0.164,0.456 -0.42,0.997 -0.864,1.515 -0.336,0.389 -0.737,0.733 -1.2,1.018 -0.51,0.317 -1.017,0.516 -1.386,0.663 -0.115,0.045 -0.222,0.083 -0.306,0.125 -1.155,0.718 -9.956,6.834 -17.237,12.102 l 46.84,-17.689 c -6.188,-1.777 -14.252,-1.348 -22.504,0.169 z" id="path3998" style="fill:#ecd100" />
  <path d="m 110.78022,220.156 c 3.843,4.16 7.795,8.217 11.575,12.433 2.478,2.764 4.739,5.725 7.082,8.61 0.85,1.044 1.167,1.104 2.416,0.59 1.164,-0.482 1.836,-1.362 2.458,-2.396 3.103,-5.162 6.255,-10.353 9.517,-15.411 6.086,-9.438 25.847,-36.041 26.492,-36.928 0.316,-0.434 0.649,-0.843 0.992,-1.243 -0.051,-0.055 -0.111,-0.098 -0.16,-0.159 l -7.812,-9.855 c -2.519,2.21 -13.38,11.834 -16.239,13.102 -1.632,0.726 -3.504,0.456 -5.202,1.42 -4.677,2.658 -8.525,6.576 -12.454,10.197 -4.25,3.917 -8.522,7.81 -12.993,11.475 -2.041,1.673 -4.008,3.408 -5.978,5.146 -0.424,0.373 -0.642,0.832 -0.495,1.332 0.182,0.591 0.4,1.247 0.801,1.687 z" id="path4000" style="fill:#ecd100" />
  <path d="m 278.85722,110.238 c 0.377,-0.218 0.602,-0.493 0.599,-0.969 0.003,-0.172 0.181,-0.408 0.343,-0.514 1.33,-0.849 2.661,-1.694 4.014,-2.502 2.656,-1.589 5.327,-3.152 7.991,-4.728 -0.025,-0.044 -0.054,-0.09 -0.074,-0.134 0.436,-0.204 0.86,-0.428 1.306,-0.598 0.127,-0.054 0.392,-0.007 0.443,0.08 0.085,0.138 0.105,0.38 0.04,0.528 -0.07,0.157 -0.253,0.284 -0.41,0.381 -1.604,0.991 -3.204,1.979 -4.811,2.963 -1.967,1.208 -3.938,2.406 -5.899,3.615 -1.221,0.751 -2.438,1.511 -3.656,2.267 l 0.857,1.384 c 1.909,-1.201 3.82,-2.403 5.734,-3.595 2.845,-1.775 5.647,-3.941 8.633,-5.451 1.191,-0.605 2.937,-0.692 3.884,-1.656 0.321,-0.331 0.347,-0.812 0.663,-1.142 0.45,-0.469 1.203,-0.769 1.759,-1.1 6.891,-4.128 13.561,-8.678 20.632,-12.496 1.522,-0.817 4.041,-1.447 4.728,-3.22 0.301,-0.779 -0.101,-1.752 0.357,-2.47 0.581,-0.914 2.194,-0.808 2.577,-1.881 0.39,-1.102 -0.81,-2.733 -1.555,-3.426 -1.159,-1.078 -3.835,2.052 -4.346,-0.652 -0.181,-0.942 -1.924,-1.091 -2.65,-2.099 -1.143,-1.581 -1.124,-4.034 -2.362,-5.446 -1.54,-1.751 -5.126,0.361 -5.047,2.371 0.059,1.458 1.236,3.087 1.591,4.519 0.506,2.049 0.318,4.172 0.532,6.256 0.035,0.334 0.146,0.681 0.303,0.979 0.176,0.352 0.126,0.565 -0.209,0.76 -0.721,0.411 -9.389,5.652 -13.025,7.814 -1.36,0.809 -3.847,0.937 -5.401,0.795 -2.09,-0.188 -4.081,-1.438 -5.937,-2.329 -0.621,-0.295 -1.17,-0.237 -1.747,0.112 -3.874,2.357 -13.739,7.98 -17.344,10.051 l 7.228,11.684 c 0.087,-0.048 0.172,-0.101 0.259,-0.151 z m 37.805,-34.542 c 0.556,-0.371 1.135,-0.701 1.719,-1.026 0.847,-0.473 1.421,-0.323 1.968,0.476 0.544,0.795 0.447,1.288 -0.368,1.775 -0.723,0.434 -1.447,0.856 -2.172,1.286 -0.638,0.513 -1.037,0.496 -1.44,0.039 -0.605,-0.69 -0.468,-2.047 0.293,-2.55 z m -13.341,18.608 c 4.563,-2.723 9.112,-5.464 13.674,-8.193 0.166,-0.102 0.382,-0.146 0.579,-0.184 0.38,-0.073 0.785,-0.058 1.135,-0.197 0.57,-0.223 1.104,-0.542 1.658,-0.809 0.12,-0.059 0.27,-0.063 0.405,-0.094 -0.094,0.087 -0.18,0.187 -0.285,0.256 -0.974,0.618 -1.936,1.248 -2.93,1.838 -3.755,2.229 -7.517,4.447 -11.278,6.67 0.021,0.037 0.047,0.076 0.068,0.111 -0.847,0.503 -1.687,1.005 -2.543,1.494 -0.211,0.123 -0.443,0.442 -0.706,0 -0.231,-0.4 -0.187,-0.645 0.223,-0.892 z m -26.456,10.03 c -0.257,-0.208 -0.588,-0.33 -0.891,-0.479 -0.193,-0.094 -0.393,-0.168 -0.592,-0.248 0.163,-0.156 0.301,-0.339 0.48,-0.452 1.6,-1.001 3.205,-1.991 4.813,-2.976 2.661,-1.625 5.32,-3.248 7.987,-4.866 0.934,-0.568 1.074,-0.522 1.585,0.43 0.062,0.121 0.179,0.248 0.164,0.358 -0.032,0.237 -0.061,0.556 -0.218,0.676 -0.525,0.411 -1.1,0.773 -1.677,1.115 -3.026,1.799 -6.058,3.583 -9.092,5.375 0.023,0.038 0.046,0.075 0.064,0.114 -0.563,0.332 -1.134,0.651 -1.685,1.002 -0.339,0.22 -0.613,0.208 -0.938,-0.049 z" id="path4002" style="fill:#ecd100" />
  <path d="m 195.13722,178.263 c -0.976,0.504 -4.165,2.136 -15.164,7.765 2.089,1.731 2.23,5.699 2.631,8.11 0.544,3.285 0.927,6.604 1.36,9.902 0.671,5.087 9.36,3.966 12.257,2.017 2.462,-1.66 2.238,-3.043 1.277,-5.479 -0.768,-1.941 -1.317,-3.978 -1.728,-6.022 -0.842,-4.188 -1.149,-8.456 -1.528,-12.707 -0.02,-0.242 0.005,-0.516 0.101,-0.736 0.395,-0.905 0.784,-1.857 0.794,-2.85 z" id="path4004" style="fill:#ecd100" />
  <path d="m 195.44222,159.544 c -1.456,-7.004 -2.327,-11.406 -2.132,-13.465 0.019,-0.186 0.04,-0.426 0.069,-0.706 -4.516,2.789 -9.002,5.619 -13.522,8.401 -1.962,1.21 -3.952,2.385 -5.972,3.497 -1.588,0.875 -3.36,1.67 -4.509,3.122 -1.216,1.541 -1.223,3.828 -1.549,5.686 -0.028,0.146 -0.061,0.344 -0.162,0.411 -0.903,0.592 -1.193,1.577 -1.581,2.487 -0.088,0.205 -0.008,0.523 0.084,0.751 0.028,0.067 0.379,-0.029 0.568,0.013 0.115,0.023 0.287,0.168 0.291,0.261 0.022,0.607 0.059,1.227 -0.016,1.829 -0.078,0.605 -0.5,1.188 -1.034,1.729 l 7.882,9.939 c 0.647,-0.431 1.344,-0.804 2.121,-1.079 0.375,-0.134 0.623,-0.104 0.82,0.262 0.15,0.285 0.326,0.557 0.502,0.833 0,0 16.482,-8.434 16.49,-8.444 -0.61,-0.849 -1.225,-1.694 -1.851,-2.538 -0.27,-0.361 -0.225,-0.562 0.244,-0.589 0.654,-0.042 1.316,-0.013 1.958,-0.117 0.878,-0.146 1.479,0.23 2.008,0.852 0.489,0.571 1.032,0.98 1.613,1.267 -0.018,-0.408 -0.037,-0.795 -0.058,-1.161 -0.622,-0.673 -0.945,-1.651 -0.969,-2.548 -0.012,-0.396 0.209,-0.918 0.519,-1.385 -0.433,-2.655 -1.131,-6.019 -1.814,-9.308 z" id="path4006" style="fill:#ecd100" />
  <path d="m 196.75522,178.307 c -0.231,-0.033 -0.467,-0.084 -0.713,-0.165 -0.086,-0.029 -0.157,-0.063 -0.231,-0.098 -0.019,0.239 -0.045,0.525 -0.083,0.834 0.213,0.067 0.427,0.135 0.64,0.198 0.316,0.096 0.636,0.184 0.958,0.246 0.196,0.038 0.391,0.054 0.582,0.056 -0.004,-0.363 -0.01,-0.725 -0.018,-1.077 -0.363,0.058 -0.74,0.065 -1.135,0.006 z" id="path4008" style="fill:#ecd100" />
  <path d="m 249.30222,110.168 c -0.202,1.141 -0.394,2.22 -0.477,3.29 l -0.261,3 c 0.008,0.366 -0.005,0.741 -0.03,1.121 l 4.762,-2.945 c 0.928,-0.576 2.129,-0.312 2.75,0.572 l 4.574,-2.833 c -0.517,-0.945 -0.213,-2.142 0.717,-2.714 l 4.835,-2.99 c 0.961,-0.598 2.226,-0.298 2.822,0.664 0.592,0.962 0.297,2.226 -0.665,2.821 l -4.838,2.993 c -0.817,0.504 -1.846,0.361 -2.505,-0.282 l -2.513,1.557 c -0.356,0.228 -0.606,0.387 -0.695,0.438 -0.072,0.041 -0.145,0.084 -0.218,0.125 l -1.241,0.771 c 0.281,0.873 -0.052,1.856 -0.868,2.363 l -4.837,2.991 c -0.662,0.41 -1.467,0.387 -2.101,0.022 -0.031,0.019 -0.062,0.036 -0.094,0.053 -0.113,0.061 -0.266,0.147 -0.374,0.117 -0.275,-0.07 -0.526,-0.046 -0.768,0.014 -0.03,0.085 -0.056,0.165 -0.067,0.241 -0.201,1.227 -0.539,2.388 -1.002,3.448 -0.084,0.185 -0.134,0.382 -0.191,0.577 -0.126,0.422 -0.275,0.929 -0.554,1.45 l -0.345,1.563 c -0.017,0.075 -0.036,0.147 -0.062,0.223 -0.031,0.091 -0.049,0.347 -0.063,0.553 l -0.025,0.334 c -0.073,0.787 -0.359,1.373 -0.746,1.8 0.029,0.161 0.055,0.32 0.083,0.483 0.298,1.724 0.644,3.753 0.898,5.917 0.611,-0.583 1.221,-1.168 1.814,-1.771 2.938,-2.974 25.748,-18.887 27.656,-20.069 0.603,-0.375 1.546,-0.525 2.021,-1.081 0.149,-0.173 0.23,-0.394 0.292,-0.622 l -8.947,-14.465 c -0.121,0.006 -0.249,0.015 -0.382,0.025 -0.999,0.083 -1.938,0.406 -2.848,0.827 -1.324,0.613 -9.489,5.216 -15.354,8.521 -0.049,0.302 -0.098,0.6 -0.153,0.898 z" id="path4010" style="fill:#ecd100" />
  <path d="m 267.27022,185.81 c 0.343,0.4 0.677,0.809 0.99,1.243 0.646,0.888 20.406,27.49 26.495,36.928 3.26,5.059 6.416,10.249 9.515,15.411 0.621,1.034 1.299,1.914 2.458,2.396 1.25,0.514 1.568,0.454 2.418,-0.59 2.34,-2.886 4.601,-5.847 7.08,-8.61 3.78,-4.216 7.732,-8.272 11.574,-12.433 0.403,-0.439 0.619,-1.096 0.799,-1.688 0.148,-0.5 -0.067,-0.959 -0.492,-1.332 -1.97,-1.737 -3.939,-3.473 -5.98,-5.146 -4.468,-3.666 -8.743,-7.559 -12.992,-11.475 -3.929,-3.621 -7.777,-7.539 -12.451,-10.197 -1.7,-0.964 -3.569,-0.694 -5.204,-1.42 -2.861,-1.268 -13.72,-10.892 -16.236,-13.102 l -7.808,9.85 c -0.052,0.064 -0.114,0.108 -0.166,0.165 z" id="path4012" style="fill:#ecd100" />
  <path d="m 112.59222,80.882 c 0.456,0.718 0.055,1.691 0.357,2.47 0.688,1.773 3.206,2.403 4.727,3.22 7.07,3.818 13.74,8.368 20.629,12.496 0.552,0.331 1.31,0.631 1.76,1.1 0.319,0.331 0.345,0.812 0.667,1.142 0.944,0.964 2.689,1.051 3.882,1.656 2.984,1.509 5.789,3.675 8.631,5.451 1.914,1.192 3.825,2.395 5.737,3.595 l 0.854,-1.384 c -1.216,-0.755 -2.433,-1.515 -3.655,-2.267 -1.963,-1.209 -3.933,-2.408 -5.902,-3.615 -1.603,-0.984 -3.204,-1.973 -4.807,-2.963 -0.157,-0.097 -0.342,-0.224 -0.411,-0.381 -0.065,-0.148 -0.044,-0.39 0.038,-0.528 0.054,-0.087 0.319,-0.134 0.443,-0.08 0.448,0.17 0.873,0.394 1.309,0.598 -0.023,0.043 -0.053,0.089 -0.075,0.134 2.665,1.576 5.333,3.139 7.99,4.728 1.354,0.808 2.683,1.653 4.017,2.502 0.158,0.105 0.336,0.341 0.339,0.514 -0.002,0.476 0.223,0.75 0.603,0.969 0.087,0.049 0.172,0.103 0.261,0.153 l 7.228,-11.684 c -3.606,-2.069 -13.474,-7.693 -17.346,-10.051 -0.581,-0.349 -1.128,-0.408 -1.75,-0.112 -1.855,0.891 -3.846,2.141 -5.934,2.329 -1.557,0.142 -4.043,0.014 -5.403,-0.795 -3.637,-2.162 -12.304,-7.404 -13.023,-7.814 -0.336,-0.194 -0.387,-0.408 -0.209,-0.76 0.154,-0.298 0.265,-0.645 0.3,-0.979 0.216,-2.084 0.028,-4.208 0.533,-6.256 0.354,-1.432 1.529,-3.061 1.59,-4.519 0.082,-2.01 -3.507,-4.122 -5.047,-2.371 -1.24,1.412 -1.219,3.865 -2.359,5.446 -0.729,1.008 -2.472,1.157 -2.65,2.099 -0.511,2.704 -3.189,-0.426 -4.348,0.652 -0.743,0.693 -1.945,2.324 -1.554,3.426 0.382,1.072 1.995,0.966 2.578,1.879 z m 35.741,14.861 c 0.509,-0.952 0.649,-0.998 1.585,-0.43 2.667,1.618 5.326,3.241 7.984,4.866 1.61,0.985 3.214,1.975 4.816,2.976 0.178,0.113 0.319,0.295 0.479,0.452 -0.2,0.08 -0.4,0.153 -0.592,0.248 -0.302,0.15 -0.631,0.272 -0.891,0.479 -0.326,0.257 -0.598,0.269 -0.938,0.05 -0.553,-0.352 -1.125,-0.671 -1.686,-1.002 0.02,-0.039 0.041,-0.076 0.065,-0.114 -3.035,-1.792 -6.067,-3.577 -9.095,-5.375 -0.577,-0.342 -1.149,-0.705 -1.676,-1.115 -0.156,-0.121 -0.185,-0.439 -0.217,-0.676 -0.015,-0.111 0.102,-0.238 0.166,-0.359 z m -30.101,-20.597 c 0.548,-0.799 1.123,-0.949 1.967,-0.476 0.584,0.325 1.163,0.655 1.72,1.026 0.759,0.503 0.897,1.86 0.292,2.551 -0.401,0.457 -0.802,0.474 -1.44,-0.039 -0.724,-0.43 -1.45,-0.853 -2.172,-1.286 -0.816,-0.488 -0.91,-0.981 -0.367,-1.776 z m -0.019,9.775 c 0.555,0.268 1.088,0.586 1.657,0.809 0.353,0.14 0.758,0.125 1.136,0.197 0.198,0.038 0.412,0.082 0.578,0.184 4.561,2.729 9.111,5.47 13.673,8.193 0.413,0.247 0.457,0.492 0.223,0.893 -0.26,0.442 -0.493,0.123 -0.706,0 -0.856,-0.489 -1.696,-0.991 -2.541,-1.494 0.02,-0.035 0.048,-0.075 0.07,-0.111 -3.765,-2.223 -7.527,-4.44 -11.282,-6.67 -0.992,-0.591 -1.956,-1.221 -2.929,-1.838 -0.106,-0.069 -0.191,-0.169 -0.286,-0.256 0.136,0.029 0.287,0.034 0.407,0.093 z" id="path4014" style="fill:#ecd100" />
  <path d="m 242.36122,206.056 c 2.898,1.949 11.588,3.07 12.256,-2.017 0.431,-3.297 0.815,-6.617 1.359,-9.902 0.4,-2.411 0.542,-6.378 2.63,-8.11 -11.007,-5.635 -14.194,-7.265 -15.162,-7.765 0.009,0.993 0.398,1.945 0.793,2.85 0.098,0.22 0.121,0.495 0.1,0.736 -0.38,4.25 -0.684,8.519 -1.525,12.707 -0.409,2.045 -0.962,4.081 -1.729,6.022 -0.96,2.436 -1.186,3.819 1.278,5.479 z" id="path4016" style="fill:#ecd100" />
  <path d="m 241.13822,173.776 c 0.461,-0.274 0.896,-0.635 1.294,-1.1 0.53,-0.622 1.129,-0.998 2.007,-0.852 0.641,0.104 1.306,0.075 1.958,0.117 0.468,0.027 0.513,0.228 0.245,0.589 -0.624,0.843 -1.239,1.688 -1.853,2.538 0.009,0.011 16.49,8.444 16.49,8.444 0.177,-0.276 0.354,-0.548 0.504,-0.833 0.197,-0.366 0.441,-0.396 0.816,-0.262 0.777,0.274 1.476,0.647 2.125,1.079 l 7.88,-9.939 c -0.534,-0.541 -0.955,-1.124 -1.031,-1.729 -0.077,-0.603 -0.043,-1.222 -0.018,-1.829 0.003,-0.093 0.174,-0.237 0.29,-0.261 0.189,-0.042 0.538,0.054 0.567,-0.013 0.093,-0.229 0.171,-0.546 0.086,-0.751 -0.39,-0.91 -0.679,-1.895 -1.585,-2.487 -0.099,-0.067 -0.133,-0.265 -0.16,-0.411 -0.328,-1.858 -0.334,-4.145 -1.548,-5.686 -1.148,-1.452 -2.922,-2.247 -4.511,-3.122 -2.02,-1.111 -4.006,-2.287 -5.969,-3.497 -4.431,-2.725 -8.83,-5.498 -13.253,-8.232 -0.123,1.802 -0.407,3.572 -0.939,5.232 -2.098,6.543 -3.193,12.582 -3.275,17.975 0.346,0.491 0.6,1.059 0.587,1.484 -0.021,0.733 -0.243,1.52 -0.662,2.152 -0.011,0.429 -0.028,0.899 -0.045,1.394 z" id="path4018" style="fill:#ecd100" />
  <path d="m 173.76922,100.753 c -0.909,-0.421 -1.847,-0.745 -2.849,-0.827 -0.134,-0.01 -0.256,-0.02 -0.378,-0.025 l -8.948,14.465 c 0.062,0.228 0.142,0.448 0.291,0.622 0.477,0.556 1.419,0.706 2.022,1.081 1.904,1.182 24.717,17.095 27.653,20.069 0.813,0.82 1.648,1.62 2.492,2.411 0.456,-4.639 1.053,-10.766 1.417,-14.846 l -3.231,-1.998 c -0.023,-0.015 -0.04,-0.035 -0.057,-0.054 -0.521,-0.227 -1.028,-0.504 -1.646,-0.347 -0.105,0.03 -0.259,-0.057 -0.375,-0.117 -0.03,-0.017 -0.063,-0.034 -0.094,-0.053 -0.633,0.364 -1.435,0.388 -2.098,-0.022 l -4.838,-2.991 c -0.82,-0.507 -1.149,-1.491 -0.868,-2.363 l -1.242,-0.771 c -0.072,-0.041 -0.145,-0.084 -0.218,-0.125 -0.084,-0.05 -0.34,-0.21 -0.697,-0.438 l -2.514,-1.557 c -0.656,0.643 -1.684,0.786 -2.5,0.282 l -4.838,-2.993 c -0.964,-0.596 -1.26,-1.859 -0.664,-2.821 0.593,-0.962 1.856,-1.262 2.819,-0.664 l 4.838,2.99 c 0.929,0.572 1.23,1.769 0.715,2.714 l 4.571,2.833 c 0.622,-0.884 1.823,-1.148 2.752,-0.572 l 4.837,2.992 c 0.884,0.547 1.199,1.654 0.784,2.575 0.41,0.305 0.812,0.607 1.21,0.922 l 3.199,-5.18 c -0.221,-0.999 -0.493,-1.95 -0.778,-2.546 -0.04,-0.083 -0.075,-0.168 -0.102,-0.255 -0.624,-0.113 -1.006,-0.188 -1.086,-0.203 -0.055,-0.011 -0.11,-0.025 -0.165,-0.04 -0.536,-0.149 -1.125,-0.297 -1.728,-0.447 -3.56,-0.894 -6.637,-1.665 -7.24,-4.067 -0.136,-0.544 -0.124,-1.125 0.028,-1.857 -4.768,-2.683 -9.493,-5.323 -10.474,-5.777 z" id="path4020" style="fill:#ecd100" />
  <path d="m 184.38422,54.878 c 1.214,0.507 8.7,3.253 10.314,10.083 0,0 -1.585,-4.434 -7.158,-6.99 2.833,5.346 4.29,23.081 4.444,29.811 0.167,7.375 -6.156,18.078 -5.656,20.074 0.355,1.414 4.619,2.16 7.44,2.947 0,0 11.942,2.334 19.224,2.021 0,0 -8.171,1.252 -16.491,-0.36 0.832,1.744 1.472,5.279 1.472,6.975 0,1.93 -2.164,23.353 -2.498,26.847 -0.329,3.495 3.828,19.131 4.326,25.287 0.499,6.154 0.167,21.126 0.869,23.455 0.704,2.331 1.458,2.162 4.29,5.323 2.828,3.162 4.824,13.477 1.827,16.635 -2.992,3.162 -9.315,15.306 -4.156,19.464 5.157,4.16 12.473,-5.321 13.306,-7.816 0.833,-2.498 2.664,-7.653 3.995,-6.656 4.158,8.316 10.48,19.297 15.805,14.641 5.323,-4.659 0.998,-13.31 -2.827,-17.968 -3.828,-4.658 -2.995,-9.813 -2.164,-14.306 0.832,-4.49 2.825,-7.653 5.16,-9.816 2.325,-2.162 3.159,-20.129 3.159,-25.12 0,-4.991 0.832,-11.311 3.396,-19.297 1.63,-5.083 0.751,-11.508 -0.06,-16.326 -0.188,-1.125 -0.368,-2.154 -0.518,-3.064 0.005,-0.029 0.014,-0.059 0.016,-0.087 0.028,-0.208 0.093,-0.354 0.326,-0.389 0.413,-0.061 0.539,-0.349 0.574,-0.725 0.041,-0.468 0.041,-0.94 0.192,-1.393 0.141,-0.633 0.279,-1.267 0.42,-1.898 0.425,-0.637 0.5,-1.408 0.802,-2.096 0.408,-0.933 0.682,-1.916 0.849,-2.932 0.127,-0.769 0.535,-1.446 0.902,-2.125 0.409,-0.854 0.444,-1.764 0.419,-2.686 0.089,-1.034 0.181,-2.067 0.27,-3.099 0.13,-1.665 0.489,-3.296 0.753,-4.938 0.106,-0.654 0.365,-1.281 0.673,-1.867 0.544,-1.042 0.758,-2.127 0.617,-3.295 -0.005,-0.03 -0.003,-0.063 -0.005,-0.096 0.385,-0.056 0.777,-0.144 1.186,-0.294 0.353,-0.131 0.66,-0.285 0.947,-0.452 1.634,-0.944 2.265,-2.467 2.877,-4.698 0.101,-0.373 1.779,-8.717 1.72,-9.78 -0.062,-1.064 0.438,-3.299 0.69,-5.839 0.242,-2.419 -0.109,-4.918 -0.102,-7.348 0.008,-2.373 0.124,-4.75 0.125,-7.125 0,-0.864 -0.015,-1.731 -0.057,-2.594 -0.205,-4.271 -0.459,-8.535 -1.266,-12.782 -1.216,-6.379 -3.394,-9.975 -3.764,-10.555 -1.397,-1.155 -6.134,-4.709 -12.982,-5.888 -2.08,-0.084 -5.825,-2.329 -6.655,-4.658 -0.832,-2.329 -3.247,-2.163 -4.241,-2.329 -0.997,-0.167 -0.582,-1.666 -0.416,-2.911 0.164,-1.25 1.665,-1.334 2.402,-2.249 0.741,-0.913 0.26,-1.745 0.841,-3.326 0.582,-1.579 -0.831,-2.995 -1.745,-2.829 -0.165,-1.163 0,-6.349 0,-6.349 0,0 1.605,-2.052 1.107,-3.994 -0.5,-1.94 -2.441,-7.096 -10.425,-7.096 -7.986,0 -12.201,4.27 -12.865,5.653 -0.666,1.387 1.312,5.755 1.365,6.226 0.056,0.471 -0.998,0.555 -2.216,0.5 -4.827,-0.444 -11.147,3.769 -12.974,5.101 -1.832,1.33 -2.828,0.833 -3.994,1.166 -1.164,0.331 -6.156,4.655 -7.985,5.321 -1.829,0.666 -9.893,4.464 -13.068,6.529 -3.058,1.991 -11.477,9.483 -8.424,14.053 2.685,4.024 19.378,7.599 25.612,10.329 z m 56.798,65.818 c -0.013,-0.231 -0.027,-0.467 -0.041,-0.706 0.059,0.049 0.116,0.1 0.189,0.141 -0.049,0.188 -0.1,0.377 -0.148,0.565 z m -0.212,-6.121 c -0.027,0.27 -0.063,0.539 -0.102,0.807 -0.038,-0.657 -0.076,-1.309 -0.111,-1.949 0.24,0.335 0.261,0.734 0.213,1.142 z m 2.7,-61.271 c -0.053,0.018 -0.104,0.045 -0.155,0.072 0.095,-0.05 0.155,-0.072 0.155,-0.072 z m -3.345,9.38 c 0.16,-7.013 2.397,-8.854 3.119,-9.267 -0.947,0.603 -1.498,2.866 -1.717,3.65 -1.281,4.612 -0.939,9.632 -0.763,14.356 0.105,2.812 0.362,5.617 0.409,8.429 0.008,0.459 0.023,0.918 0.018,1.376 -0.057,4.188 -0.627,8.388 -0.503,12.573 0.055,1.811 0.019,3.829 0.544,5.577 0.229,0.767 0.498,1.469 0.92,2.026 -0.006,0.084 -10e-4,0.17 -0.012,0.253 -0.124,0.994 -0.27,1.991 -0.401,2.983 -0.067,0.5 -0.288,1.016 -0.446,1.494 -0.188,0.579 -0.674,0.926 -1.045,1.363 -0.061,-1.415 -0.086,-2.392 -0.053,-2.639 0.204,-1.517 0.005,-2.879 -0.183,-3.976 -0.119,-0.708 -0.234,-1.305 -0.234,-1.763 0,-0.134 0.014,-0.443 0.04,-0.881 0.194,-3.348 0.917,-28.085 0.078,-33.932 -0.069,-0.474 -0.112,-0.826 -0.142,-1.083 -0.398,-2.817 -1.801,-4.081 -1.801,-4.081 1.366,0.612 1.756,1.756 2.172,3.542 z m -21.589,125.253 c 0.41,-2.271 1.344,-6.28 2.961,-7.383 0,0 -2.355,2.873 -2.602,10.53 -0.031,0.913 0.12,1.862 0.146,2.779 0.022,0.746 -0.107,1.544 0.211,2.241 0.238,0.52 0.681,0.897 0.967,1.383 0.31,0.517 0.389,1.081 0.454,1.671 0.162,1.498 0.141,3.015 0.141,4.518 0,8.734 -1.913,9.982 -1.913,9.982 0,0 -1.914,-1.248 -1.914,-9.982 0,-1.29 -0.152,-2.58 -0.047,-3.871 0.075,-0.929 0.571,-1.729 0.932,-2.568 0.391,-0.909 0.499,-1.816 0.494,-2.804 -0.005,-1.102 0.019,-2.205 0,-3.303 -0.047,-2.501 -0.359,-5.08 -1.075,-7.48 -0.376,-1.262 -0.917,-2.519 -1.69,-3.596 0.001,0 1.957,1.559 2.935,7.883 z m -28.329,-159.889 c 1.745,0.335 3.589,0.702 6.147,-0.386 2.681,-1.141 3.333,-2.405 5.165,-2.736 1.828,-0.333 4.352,-0.748 4.242,-2.023 -0.113,-1.274 -2.662,-1.274 -2.662,-1.274 1.053,-0.169 3.715,-1.996 3.715,-1.996 0,0 0.884,0.554 0.61,2.383 -0.278,1.83 1.722,3.049 2.771,4.158 1.055,1.109 -0.328,2.331 0.666,3.273 0.999,0.943 0.446,1.109 -1.498,2.44 -1.109,0.762 -1.859,0.877 -2.724,0.741 h 0.006 c -8.157,-1.726 -14.782,0.856 -14.782,0.856 7.629,-3.41 14.782,-0.856 14.782,-0.856 0,0 0.173,-1.013 -2.073,-1.481 -2.246,-0.465 -9.583,-0.231 -11.492,0.257 -1.857,0.475 -1.248,1.574 -0.645,1.845 -1.135,0.521 -2.477,0.672 -4.09,1.133 -1.799,0.515 -3.954,1.458 -4.845,1.859 -3.287,1.896 -5.23,4.93 -5.23,4.93 0.605,-1.208 1.409,-2.215 2.242,-3.039 -2.514,1.087 -5.605,0.718 -5.605,0.718 9.366,-3.679 15.3,-10.802 15.3,-10.802 z" id="path4022" style="fill:#ecd100" />
</svg>
